<svg width="24" height="19" viewBox="0 0 24 19" fill="none" xmlns="http://www.w3.org/2000/svg">
<path fill-rule="evenodd" clip-rule="evenodd" d="M1.86762 2.14933C1.87553 1.93829 1.91606 1.71993 2.00497 1.53231C2.08294 1.36778 2.19545 1.23119 2.35629 1.13275C2.5181 1.03371 2.75822 0.955372 3.11882 0.955372H20.7587C20.9404 0.955372 21.2428 1.02586 21.4928 1.24334C21.7259 1.4462 21.9587 1.81604 21.9587 2.50785V5.1844C21.7741 5.15237 21.5748 5.13487 21.36 5.13487H9.51981C9.3214 5.09892 9.03117 4.99924 8.79618 4.8208C8.56099 4.64219 8.4 4.40348 8.4 4.06007C8.4 3.3985 8.14164 2.92049 7.78952 2.6079C7.4535 2.30962 7.05399 2.18018 6.76776 2.1517L6.74394 2.14933H1.86762ZM0.912445 2.42267C0.887511 2.02734 0.933085 1.55446 1.13668 1.12482C1.28271 0.81664 1.51219 0.527789 1.85336 0.318971C2.19355 0.11075 2.61543 0 3.11882 0H20.7587C21.1371 0 21.6746 0.132525 22.1246 0.524097C22.5915 0.930285 22.9187 1.57554 22.9187 2.50785V5.5402C23.6112 5.96879 23.9251 6.6437 23.9944 7.0924L24 7.1285V7.64272V16.5993C24 17.6176 23.5597 18.2739 22.9596 18.6374C22.4066 18.9726 21.7679 19.0303 21.335 18.9878H1.92C1.12207 18.9878 0.621324 18.5286 0.345645 18.0205C0.0811977 17.5332 0 16.9714 0 16.5993V4.41834C0 3.64942 0.232678 3.09198 0.573667 2.71598C0.680356 2.59834 0.795213 2.50128 0.912445 2.42267ZM23.04 7.64272H23.52C23.04 7.64272 23.04 7.64295 23.04 7.64299V16.5993C23.04 17.3008 22.7603 17.6397 22.4604 17.8214C22.1255 18.0244 21.6999 18.067 21.413 18.0353L21.3866 18.0324H1.92C1.56593 18.0324 1.34668 17.8547 1.19035 17.5666C1.0228 17.2578 0.96 16.8642 0.96 16.5993V4.41834C0.96 3.84974 1.12732 3.53142 1.28633 3.35608C1.44325 3.18306 1.61841 3.11924 1.70965 3.1047H6.69207C6.80827 3.12079 6.99565 3.18341 7.15048 3.32086C7.29836 3.45213 7.44 3.67074 7.44 4.06007C7.44 4.76757 7.79901 5.2653 8.21382 5.5803C8.61537 5.88524 9.08515 6.03541 9.40701 6.08468L9.44329 6.09024H21.36C22.575 6.09024 22.9703 6.85619 23.04 7.20622V7.64272Z" fill="url(#paint0_linear_37_25)"/>
<defs>
<linearGradient id="paint0_linear_37_25" x1="24" y1="0" x2="2.82119" y2="20.6984" gradientUnits="userSpaceOnUse">
<stop stop-color="#4F13FF"/>
<stop offset="1" stop-color="#7A1FFC"/>
</linearGradient>
</defs>
</svg>
