<svg width="24" height="16" viewBox="0 0 24 16" fill="none" xmlns="http://www.w3.org/2000/svg">
<path d="M2.49134 15.6125C1.4948 15.6125 0.33218 15.0311 0 13.7024V13.6193V1.99308C0.166089 1.32871 0.498269 0.830449 0.996541 0.498269C1.41176 0.166089 1.91003 0 2.40831 0H7.51348H7.61105H16.1978H21.5917C22.9204 0 24 1.07959 24 2.4083V13.1211C24 14.5328 22.9204 15.6125 21.5917 15.6125H16.1999H16.1978H16.1959H11.3772H7.70864H2.49134ZM16.7833 14.6159H21.3424C22.422 14.6159 23.0035 14.0345 23.0035 12.9549V2.65744C23.0035 1.57785 22.422 0.996536 21.3424 0.996536H16.7806C16.7823 1.04953 16.7833 1.10487 16.7833 1.16262V14.6159ZM15.6167 0.996536C15.6138 1.05056 15.6124 1.106 15.6124 1.16262V14.4497C15.6124 14.5075 15.6133 14.5629 15.6152 14.6159H8.19652V0.996536H15.6167ZM2.65743 0.996536H7.02559V5.75194V14.2977V14.6159H2.65743C1.57785 14.6159 0.996541 14.0345 0.996541 12.9549V2.65744C0.996541 1.57785 1.57785 0.996536 2.65743 0.996536Z" fill="url(#paint0_linear_101_385)"/>
<defs>
<linearGradient id="paint0_linear_101_385" x1="1.12502e-07" y1="6.99982" x2="25.8125" y2="6.99982" gradientUnits="userSpaceOnUse">
<stop stop-color="#4F13FF"/>
<stop offset="1" stop-color="#7A1FFC"/>
</linearGradient>
</defs>
</svg>
