<svg width="24" height="24" viewBox="0 0 24 24" fill="none" xmlns="http://www.w3.org/2000/svg">
<mask id="mask0_101_305" style="mask-type:alpha" maskUnits="userSpaceOnUse" x="0" y="0" width="24" height="24">
<path fill-rule="evenodd" clip-rule="evenodd" d="M0.000244141 0.428187C0.000244141 0.191706 0.19195 0 0.428433 0H23.1652C23.4017 0 23.5934 0.191706 23.5934 0.428187V14.0017C23.5934 14.2382 23.4017 14.4299 23.1652 14.4299C22.9287 14.4299 22.737 14.2382 22.737 14.0017V0.856375H0.85662V17.0205H11.2616C11.4981 17.0205 11.6898 17.2122 11.6898 17.4487C11.6898 17.6851 11.4981 17.8768 11.2616 17.8768H0.428433C0.19195 17.8768 0.000244141 17.6851 0.000244141 17.4487V0.428187Z" fill="#333333"/>
<path fill-rule="evenodd" clip-rule="evenodd" d="M10.6371 9.12453C10.8358 9.25269 10.8931 9.5177 10.7649 9.71643L8.23857 13.6344C8.16685 13.7456 8.04769 13.8174 7.9158 13.8289C7.78391 13.8403 7.65415 13.7902 7.56431 13.693L4.54792 10.43L0.79542 16.6842C0.673751 16.8869 0.410733 16.9527 0.207952 16.831C0.00517032 16.7094 -0.0605843 16.4463 0.0610846 16.2436L4.10746 9.49959C4.17682 9.384 4.29657 9.3078 4.43067 9.29398C4.56475 9.28012 4.69754 9.33025 4.78904 9.42922L7.81819 12.706L10.0452 9.25236C10.1733 9.0536 10.4383 8.99638 10.6371 9.12453Z" fill="#333333"/>
<path fill-rule="evenodd" clip-rule="evenodd" d="M5.41662 3.46844C4.44705 3.46844 3.66105 4.25444 3.66105 5.22402C3.66105 6.19359 4.44705 6.97956 5.41662 6.97956C6.3862 6.97956 7.1722 6.19359 7.1722 5.22402C7.1722 4.25444 6.3862 3.46844 5.41662 3.46844ZM2.80469 5.22402C2.80469 3.78148 3.97409 2.61206 5.41662 2.61206C6.85916 2.61206 8.02859 3.78148 8.02859 5.22402C8.02859 6.66655 6.85916 7.83595 5.41662 7.83595C3.97409 7.83595 2.80469 6.66655 2.80469 5.22402Z" fill="#333333"/>
<path fill-rule="evenodd" clip-rule="evenodd" d="M13.2979 7.42083C13.4554 7.35336 13.638 7.3863 13.762 7.50453L23.8672 17.1387C23.9939 17.2595 24.0343 17.4453 23.9693 17.6078C23.9042 17.7703 23.7468 17.8768 23.5717 17.8768H20.0938L22.2089 21.5601C22.267 21.6612 22.2813 21.7816 22.2486 21.8935C22.2159 22.0054 22.1389 22.0991 22.0356 22.153L19.0382 23.7159C18.83 23.8245 18.5731 23.7451 18.4625 23.5378L16.319 19.5212L13.7203 21.4332C13.5902 21.5289 13.4174 21.5432 13.2733 21.4704C13.1292 21.3975 13.0383 21.2497 13.0383 21.0883V7.81443C13.0383 7.6431 13.1405 7.48827 13.2979 7.42083ZM13.8947 8.81428V20.2416L16.2101 18.5382C16.3102 18.4645 16.4374 18.438 16.5586 18.4655C16.6798 18.493 16.7831 18.5718 16.8416 18.6815L19.0184 22.7605L21.2442 21.5999L18.9828 17.6619C18.9067 17.5294 18.907 17.3664 18.9835 17.2341C19.0601 17.1019 19.2013 17.0205 19.3541 17.0205H22.5021L13.8947 8.81428Z" fill="#333333"/>
</mask>
<g mask="url(#mask0_101_305)">
<path d="M28.4746 -4.28198H-5.13818V24.4065H28.4746V-4.28198Z" fill="url(#paint0_linear_101_305)"/>
</g>
<defs>
<linearGradient id="paint0_linear_101_305" x1="28.4746" y1="-4.28198" x2="-3.35878" y2="24.5754" gradientUnits="userSpaceOnUse">
<stop stop-color="#4F13FF"/>
<stop offset="1" stop-color="#7A1FFC"/>
</linearGradient>
</defs>
</svg>
