<svg width="24" height="22" viewBox="0 0 24 22" fill="none" xmlns="http://www.w3.org/2000/svg">
<mask id="mask0_101_333" style="mask-type:alpha" maskUnits="userSpaceOnUse" x="0" y="0" width="24" height="22">
<path fill-rule="evenodd" clip-rule="evenodd" d="M0 0.512624C0 0.22951 0.22951 0 0.512624 0H6.97105C7.25417 0 7.48368 0.22951 7.48368 0.512624V6.97105C7.48368 7.25417 7.25417 7.48368 6.97105 7.48368H0.512624C0.22951 7.48368 0 7.25417 0 6.97105V0.512624ZM1.02525 1.02525V6.45843H6.45843V1.02525H1.02525Z" fill="#333333"/>
<path fill-rule="evenodd" clip-rule="evenodd" d="M0.575928 9.04851C0.575928 8.7654 0.805438 8.53589 1.08855 8.53589H6.39516C6.67827 8.53589 6.90778 8.7654 6.90778 9.04851C6.90778 9.33163 6.67827 9.56114 6.39516 9.56114H1.08855C0.805438 9.56114 0.575928 9.33163 0.575928 9.04851Z" fill="#333333"/>
<path fill-rule="evenodd" clip-rule="evenodd" d="M8.26855 0.512624C8.26855 0.22951 8.49806 0 8.78118 0H15.2396C15.5227 0 15.7522 0.22951 15.7522 0.512624V6.97105C15.7522 7.25417 15.5227 7.48368 15.2396 7.48368H8.78118C8.49806 7.48368 8.26855 7.25417 8.26855 6.97105V0.512624ZM9.2938 1.02525V6.45843H14.727V1.02525H9.2938Z" fill="#333333"/>
<path fill-rule="evenodd" clip-rule="evenodd" d="M8.84424 9.04851C8.84424 8.7654 9.07375 8.53589 9.35686 8.53589H14.6429C14.926 8.53589 15.1555 8.7654 15.1555 9.04851C15.1555 9.33163 14.926 9.56114 14.6429 9.56114H9.35686C9.07375 9.56114 8.84424 9.33163 8.84424 9.04851Z" fill="#333333"/>
<path fill-rule="evenodd" clip-rule="evenodd" d="M16.5164 0.512624C16.5164 0.22951 16.7459 0 17.029 0H23.4874C23.7705 0 24 0.22951 24 0.512624V6.97105C24 7.25417 23.7705 7.48368 23.4874 7.48368H17.029C16.7459 7.48368 16.5164 7.25417 16.5164 6.97105V0.512624ZM17.5416 1.02525V6.45843H22.9748V1.02525H17.5416Z" fill="#333333"/>
<path fill-rule="evenodd" clip-rule="evenodd" d="M17.0923 9.04851C17.0923 8.7654 17.3218 8.53589 17.6049 8.53589H22.9115C23.1946 8.53589 23.4241 8.7654 23.4241 9.04851C23.4241 9.33163 23.1946 9.56114 22.9115 9.56114H17.6049C17.3218 9.56114 17.0923 9.33163 17.0923 9.04851Z" fill="#333333"/>
<path fill-rule="evenodd" clip-rule="evenodd" d="M0 11.9692C0 11.6861 0.22951 11.4565 0.512624 11.4565H6.97105C7.25417 11.4565 7.48368 11.6861 7.48368 11.9692V18.4276C7.48368 18.7107 7.25417 18.9402 6.97105 18.9402H0.512624C0.22951 18.9402 0 18.7107 0 18.4276V11.9692ZM1.02525 12.4818V17.915H6.45843V12.4818H1.02525Z" fill="#333333"/>
<path fill-rule="evenodd" clip-rule="evenodd" d="M0.575928 20.5051C0.575928 20.2219 0.805438 19.9924 1.08855 19.9924H6.39516C6.67827 19.9924 6.90778 20.2219 6.90778 20.5051C6.90778 20.7882 6.67827 21.0177 6.39516 21.0177H1.08855C0.805438 21.0177 0.575928 20.7882 0.575928 20.5051Z" fill="#333333"/>
<path fill-rule="evenodd" clip-rule="evenodd" d="M8.26855 11.9692C8.26855 11.6861 8.49806 11.4565 8.78118 11.4565H15.2396C15.5227 11.4565 15.7522 11.6861 15.7522 11.9692V18.4276C15.7522 18.7107 15.5227 18.9402 15.2396 18.9402H8.78118C8.49806 18.9402 8.26855 18.7107 8.26855 18.4276V11.9692ZM9.2938 12.4818V17.915H14.727V12.4818H9.2938Z" fill="#333333"/>
<path fill-rule="evenodd" clip-rule="evenodd" d="M8.84424 20.5051C8.84424 20.2219 9.07375 19.9924 9.35686 19.9924H14.6429C14.926 19.9924 15.1555 20.2219 15.1555 20.5051C15.1555 20.7882 14.926 21.0177 14.6429 21.0177H9.35686C9.07375 21.0177 8.84424 20.7882 8.84424 20.5051Z" fill="#333333"/>
<path fill-rule="evenodd" clip-rule="evenodd" d="M16.5164 11.9692C16.5164 11.6861 16.7459 11.4565 17.029 11.4565H23.4874C23.7705 11.4565 24 11.6861 24 11.9692V18.4276C24 18.7107 23.7705 18.9402 23.4874 18.9402H17.029C16.7459 18.9402 16.5164 18.7107 16.5164 18.4276V11.9692ZM17.5416 12.4818V17.915H22.9748V12.4818H17.5416Z" fill="#333333"/>
<path fill-rule="evenodd" clip-rule="evenodd" d="M17.0923 20.5051C17.0923 20.2219 17.3218 19.9924 17.6049 19.9924H22.9115C23.1946 19.9924 23.4241 20.2219 23.4241 20.5051C23.4241 20.7882 23.1946 21.0177 22.9115 21.0177H17.6049C17.3218 21.0177 17.0923 20.7882 17.0923 20.5051Z" fill="#333333"/>
</mask>
<g mask="url(#mask0_101_333)">
<path d="M29.1026 -4.62939H-2.77832V22.7263H29.1026V-4.62939Z" fill="url(#paint0_linear_101_333)"/>
</g>
<defs>
<linearGradient id="paint0_linear_101_333" x1="29.1024" y1="-4.6294" x2="-1.2357" y2="22.7264" gradientUnits="userSpaceOnUse">
<stop stop-color="#4F13FF"/>
<stop offset="1" stop-color="#7A1FFC"/>
</linearGradient>
</defs>
</svg>
