<svg width="28" height="21" viewBox="0 0 28 21" fill="none" xmlns="http://www.w3.org/2000/svg">
<mask id="mask0_2072_71" style="mask-type:alpha" maskUnits="userSpaceOnUse" x="-1" y="0" width="29" height="21">
<path d="M25.8829 0.351318H1.35301C0.601512 0.351318 -0.00976562 0.962596 -0.00976562 1.71409V18.9759C-0.00976562 19.7274 0.601512 20.3387 1.35301 20.3387H25.8829C26.6344 20.3387 27.2457 19.7274 27.2457 18.9759V1.71409C27.2457 0.962596 26.6344 0.351318 25.8829 0.351318ZM1.35301 19.4301C1.1026 19.4301 0.898767 19.2263 0.898767 18.9759V13.3405L5.12395 9.11506C5.29472 8.94205 5.58575 8.93982 5.76099 9.1173L10.2508 13.603L4.42196 19.4301H1.35301ZM26.3371 18.9758C26.3371 19.2262 26.1333 19.4301 25.8829 19.4301H5.70685L19.2059 5.93522C19.3767 5.76222 19.6679 5.75998 19.8427 5.93746L26.3372 12.4276L26.3371 18.9758ZM26.3371 11.1429L20.487 5.2969C19.972 4.77564 19.0726 4.77788 18.5615 5.29467L10.8933 12.9607L6.40511 8.47674C5.89008 7.95548 4.99065 7.9575 4.47961 8.47477L0.898767 12.0558V1.71409C0.898767 1.46368 1.1026 1.25985 1.35301 1.25985H25.8829C26.1333 1.25985 26.3371 1.46368 26.3371 1.71409V11.1429Z" fill="black"/>
<path d="M11.3476 3.53101C9.84468 3.53101 8.62207 4.75361 8.62207 6.25655C8.62207 7.75949 9.84468 8.98209 11.3476 8.98209C12.8506 8.98209 14.0732 7.75949 14.0732 6.25655C14.0732 4.75361 12.8506 3.53101 11.3476 3.53101ZM11.3476 8.07356C10.3457 8.07356 9.5306 7.2584 9.5306 6.25655C9.5306 5.2547 10.3457 4.43954 11.3476 4.43954C12.3495 4.43954 13.1646 5.2547 13.1646 6.25655C13.1646 7.2584 12.3495 8.07356 11.3476 8.07356Z" fill="black"/>
</mask>
<g mask="url(#mask0_2072_71)">
<path d="M35.5149 -7.48608H-2.65723V25.0938H35.5149V-7.48608Z" fill="url(#paint0_linear_2072_71)"/>
</g>
<defs>
<linearGradient id="paint0_linear_2072_71" x1="35.5149" y1="-7.48608" x2="-0.636462" y2="25.2856" gradientUnits="userSpaceOnUse">
<stop stop-color="#4F13FF"/>
<stop offset="1" stop-color="#7A1FFC"/>
</linearGradient>
</defs>
</svg>
