<svg width="24" height="23" viewBox="0 0 24 23" fill="none" xmlns="http://www.w3.org/2000/svg">
<mask id="mask0_2072_99" style="mask-type:alpha" maskUnits="userSpaceOnUse" x="0" y="0" width="24" height="23">
<path d="M18.1149 7.06851H18.6428V9.15189C18.6428 9.33294 18.7895 9.47965 18.9705 9.47965C19.1516 9.47965 19.2983 9.33294 19.2983 9.15189V7.06851H19.8261C20.0072 7.06851 20.1539 6.9218 20.1539 6.74075C20.1539 6.5597 20.0072 6.413 19.8261 6.413H19.2983V5.46076C19.2983 5.27774 19.4471 5.1289 19.6302 5.1289H20.4068C20.5879 5.1289 20.7346 4.98219 20.7346 4.80114C20.7346 4.62009 20.5879 4.47338 20.4068 4.47338H19.6302C19.0857 4.47338 18.6428 4.91633 18.6428 5.46076V6.413H18.1149C17.9339 6.413 17.7872 6.5597 17.7872 6.74075C17.7872 6.9218 17.9339 7.06851 18.1149 7.06851ZM12.18 2.13251C12.2669 2.13251 12.3503 2.09798 12.4117 2.03652C12.4732 1.97505 12.5077 1.89169 12.5077 1.80476C12.5077 1.71783 12.4732 1.63447 12.4117 1.573C12.3503 1.51154 12.2669 1.477 12.18 1.477C12.093 1.477 12.0097 1.51154 11.9482 1.573C11.8868 1.63447 11.8522 1.71783 11.8522 1.80476C11.8522 1.89169 11.8868 1.97505 11.9482 2.03652C12.0097 2.09798 12.093 2.13251 12.18 2.13251ZM5.09902 7.82732C5.64117 7.82732 6.08229 7.38621 6.08229 6.84406C6.08229 6.30191 5.64117 5.86079 5.09902 5.86079C4.55687 5.86079 4.11576 6.30191 4.11576 6.84406C4.11576 7.38621 4.55687 7.82732 5.09902 7.82732ZM5.09902 6.5163C5.27977 6.5163 5.42678 6.66331 5.42678 6.84406C5.42678 7.0248 5.27977 7.17181 5.09902 7.17181C4.91828 7.17181 4.77127 7.0248 4.77127 6.84406C4.77127 6.66331 4.91832 6.5163 5.09902 6.5163ZM6.41004 9.13834C6.95219 9.13834 7.39331 8.69723 7.39331 8.15508V5.53304C7.39331 4.99089 6.95219 4.54977 6.41004 4.54977H3.788C3.24585 4.54977 2.80474 4.99089 2.80474 5.53304V8.15508C2.80474 8.69723 3.24585 9.13834 3.788 9.13834H6.41004ZM3.46025 8.15508V5.53304C3.46025 5.35229 3.60726 5.20528 3.788 5.20528H6.41004C6.59079 5.20528 6.7378 5.35229 6.7378 5.53304V8.15508C6.7378 8.33583 6.59079 8.48283 6.41004 8.48283H3.788C3.6073 8.48283 3.46025 8.33578 3.46025 8.15508ZM7.08539 13.9934C6.92628 13.8737 6.71569 13.8536 6.53568 13.9408C6.49154 13.9622 6.44518 13.9783 6.39785 13.9889C6.34019 14.0019 6.28099 14.0066 6.222 14.003C6.02884 13.8255 5.78307 13.7193 5.5175 13.7008C5.20797 13.6789 4.90801 13.7795 4.6736 13.9834C4.45904 14.1696 4.32029 14.4282 4.28366 14.7099C3.90228 14.6484 3.55289 14.4554 3.29523 14.1573C3.24347 14.0973 3.17649 14.0523 3.10134 14.0272C3.02619 14.002 2.94565 13.9975 2.86819 14.0143C2.79127 14.0309 2.72025 14.068 2.66262 14.1216C2.605 14.1752 2.56289 14.2434 2.54074 14.3189C2.43048 14.6934 2.19778 15.8409 3.16636 16.6059C2.98151 16.6623 2.77069 16.6581 2.66288 16.8453C2.56569 17.014 2.61765 17.2128 2.65729 17.3164C2.73473 17.5185 2.9368 17.664 3.25778 17.7489C3.43298 17.7952 3.66197 17.8251 3.92002 17.8251C4.51855 17.8251 5.27278 17.664 5.87047 17.1724C6.46615 16.6825 6.70974 16.0146 6.80798 15.5078C6.96049 15.3342 7.08245 15.136 7.16869 14.9217C7.22298 14.7867 7.26277 14.6463 7.28738 14.5028C7.32081 14.3074 7.24346 14.1122 7.08539 13.9934ZM6.26692 15.1278C6.22048 15.1757 6.18978 15.2367 6.17891 15.3025C6.112 15.7077 5.93196 16.2731 5.45409 16.6661C4.87632 17.1412 4.0631 17.208 3.59541 17.1478C3.75143 17.0831 3.90048 17.0028 4.04029 16.9081C4.08864 16.8752 4.12734 16.8301 4.15237 16.7773C4.17741 16.7245 4.18787 16.6659 4.18267 16.6077C4.17747 16.5495 4.15681 16.4938 4.12281 16.4462C4.08882 16.3987 4.04273 16.3611 3.98933 16.3374C3.17322 15.9746 3.04465 15.3571 3.09535 14.8728C3.52265 15.2196 4.06015 15.4016 4.61023 15.3858C4.69566 15.3836 4.77684 15.3481 4.83648 15.2869C4.89612 15.2257 4.9295 15.1436 4.92951 15.0582V14.8718L4.92946 14.8674C4.92841 14.7937 4.94346 14.7206 4.97357 14.6534C5.00368 14.5861 5.04812 14.5262 5.10379 14.4779C5.15396 14.434 5.21233 14.4005 5.27552 14.3794C5.3387 14.3582 5.40546 14.3498 5.47192 14.3546C5.53841 14.359 5.60335 14.3766 5.66299 14.4064C5.72263 14.4361 5.77579 14.4773 5.81938 14.5277C5.86703 14.5825 5.93151 14.6199 6.00271 14.6341C6.1967 14.6727 6.39304 14.6677 6.58262 14.6185C6.51553 14.8092 6.40781 14.9829 6.26692 15.1278ZM19.2609 11.6553C19.2531 11.6553 19.2454 11.6556 19.2376 11.6556V10.9502C19.2454 10.9503 19.2531 10.9505 19.2609 10.9505C21.5252 10.9505 23.3673 9.10841 23.3673 6.84406C23.3673 4.57053 21.5103 2.72501 19.2376 2.7379V2.4271C19.2376 1.28254 18.3064 0.351318 17.1619 0.351318H7.1981C6.05353 0.351318 5.12231 1.28254 5.12231 2.4271V2.7379C4.31936 2.73322 3.54026 2.96051 2.8692 3.3952C2.83287 3.41851 2.8015 3.44876 2.7769 3.48422C2.75229 3.51968 2.73493 3.55965 2.72582 3.60184C2.7167 3.64402 2.71601 3.68759 2.72377 3.73005C2.73154 3.77251 2.74762 3.81301 2.77108 3.84923C2.79454 3.88546 2.82493 3.9167 2.86049 3.94115C2.89606 3.9656 2.9361 3.98279 2.97833 3.99172C3.02055 4.00066 3.06413 4.00116 3.10655 3.99321C3.14897 3.98526 3.18941 3.96901 3.22553 3.94539C3.78328 3.58408 4.43115 3.3931 5.09902 3.3931C7.00188 3.3931 8.54998 4.9412 8.54998 6.84406C8.54998 8.74692 7.00188 10.295 5.09902 10.295C3.19616 10.295 1.64807 8.74692 1.64807 6.84406C1.64807 6.1542 1.85088 5.48846 2.23449 4.91887C2.28223 4.84676 2.29954 4.75871 2.28265 4.6739C2.26576 4.58908 2.21603 4.51438 2.1443 4.46607C2.07257 4.41776 1.98465 4.39976 1.89971 4.41599C1.81477 4.43221 1.73968 4.48135 1.69081 4.5527C1.23405 5.23094 0.992557 6.02323 0.992557 6.84406C0.992557 9.10837 2.83467 10.9505 5.09902 10.9505C5.1068 10.9505 5.11449 10.9503 5.12227 10.9502V11.6637C5.03604 11.6582 4.94966 11.6554 4.86326 11.6553C2.59895 11.6553 0.756836 13.4974 0.756836 15.7618C0.756836 18.0261 2.59895 19.8683 4.8633 19.8683C4.95031 19.8683 5.03662 19.8652 5.12231 19.8599V20.6503C5.12231 21.7948 6.05353 22.7261 7.1981 22.7261H17.1619C18.3064 22.7261 19.2376 21.7948 19.2376 20.6503V19.868C19.2454 19.868 19.2531 19.8683 19.2609 19.8683C21.5252 19.8683 23.3673 18.0261 23.3673 15.7618C23.3673 13.4974 21.5252 11.6553 19.2609 11.6553ZM19.2609 3.3931C21.1637 3.3931 22.7118 4.9412 22.7118 6.84406C22.7118 8.74692 21.1637 10.295 19.2609 10.295C17.358 10.295 15.8099 8.74692 15.8099 6.84406C15.8099 4.9412 17.358 3.3931 19.2609 3.3931ZM18.5821 10.8941V11.711C18.3594 11.7477 18.1402 11.8028 17.9266 11.8757V10.7278C18.1401 10.8013 18.3594 10.8569 18.5821 10.8941ZM6.43334 2.64556V2.96025C6.21982 2.88673 6.00056 2.83112 5.77783 2.79397V2.42706C5.77783 1.6439 6.41494 1.00678 7.1981 1.00678H17.1619C17.945 1.00678 18.5821 1.6439 18.5821 2.42706V2.79397C18.3594 2.83112 18.1401 2.88673 17.9266 2.96025V2.64556C17.9266 2.10341 17.4855 1.66229 16.9433 1.66229H15.7394C15.3659 1.66229 15.062 1.96615 15.062 2.33966C15.0619 2.40941 15.0342 2.47628 14.9849 2.52559C14.9355 2.57491 14.8687 2.60265 14.7989 2.60273H9.56099C9.49124 2.60265 9.42437 2.57491 9.37504 2.52559C9.32572 2.47628 9.29796 2.40941 9.29787 2.33966C9.29787 2.15852 9.22747 1.98839 9.09873 1.85969C9.03592 1.79695 8.96134 1.74722 8.87928 1.71335C8.79722 1.67948 8.70929 1.66213 8.62051 1.66229H7.41656C6.87441 1.66229 6.43334 2.10341 6.43334 2.64556ZM5.77783 10.8941C6.00056 10.8569 6.21982 10.8013 6.43334 10.7278V11.9675C6.22114 11.8793 6.00185 11.8092 5.77783 11.7581V10.8941ZM4.8633 19.2127C2.96044 19.2127 1.41235 17.6647 1.41235 15.7618C1.41235 13.8589 2.96044 12.3108 4.8633 12.3108C6.76616 12.3108 8.31426 13.8589 8.31426 15.7618C8.31426 17.7731 6.72657 19.2127 4.8633 19.2127ZM18.5821 20.6502C18.5821 21.4334 17.945 22.0705 17.1619 22.0705H7.1981C6.41494 22.0705 5.77783 21.4334 5.77783 20.6502V19.7655C6.00185 19.7143 6.22114 19.6442 6.43334 19.556V20.4317C6.43334 20.9739 6.87445 21.415 7.4166 21.415H16.9433C17.4855 21.415 17.9266 20.9739 17.9266 20.4317V19.6456C18.1401 19.7191 18.3594 19.7747 18.5821 19.8118V20.6502ZM19.2609 19.2127C17.358 19.2127 15.8099 17.6647 15.8099 15.7618C15.8099 15.466 15.8473 15.1725 15.9211 14.8893C15.943 14.8052 15.9306 14.7158 15.8866 14.6408C15.8426 14.5658 15.7707 14.5114 15.6866 14.4895C15.6449 14.4786 15.6015 14.4761 15.5589 14.482C15.5163 14.4879 15.4752 14.5022 15.4381 14.5239C15.401 14.5457 15.3685 14.5746 15.3425 14.6089C15.3166 14.6433 15.2976 14.6824 15.2868 14.724C15.1987 15.0629 15.1543 15.4116 15.1545 15.7618C15.1545 17.3046 16.0099 18.6512 17.2711 19.3529V20.4317C17.2711 20.6125 17.1241 20.7595 16.9434 20.7595H7.41664C7.2359 20.7595 7.08889 20.6125 7.08889 20.4317V19.2113C8.21986 18.4791 8.96981 17.2064 8.96981 15.7618C8.96981 14.3171 8.21986 13.0444 7.08889 12.3122V10.4351C8.35018 9.73342 9.20558 8.38682 9.20558 6.84402C9.20558 5.30121 8.35018 3.95461 7.08889 3.25296V2.64556C7.08889 2.46481 7.2359 2.31781 7.41664 2.31781H8.6206C8.62676 2.31781 8.63231 2.32021 8.63616 2.3241C8.63823 2.32611 8.63986 2.32853 8.64095 2.33121C8.64203 2.33389 8.64254 2.33677 8.64245 2.33966C8.64245 2.84615 9.05455 3.25824 9.56108 3.25824H14.799C15.3055 3.25824 15.7176 2.84615 15.7176 2.33966C15.7176 2.32764 15.7275 2.31781 15.7395 2.31781H16.9434C17.1242 2.31781 17.2712 2.46481 17.2712 2.64556V3.25296C16.0099 3.95461 15.1545 5.30121 15.1545 6.84402C15.1545 8.38779 16.011 9.73508 17.2735 10.4364C17.2721 10.4488 17.2712 10.4613 17.2712 10.4741V12.1665C16.7879 12.4345 16.3574 12.802 16.0071 13.2564C15.9543 13.3253 15.931 13.4122 15.9422 13.4982C15.9535 13.5843 15.9984 13.6623 16.0671 13.7153C16.1358 13.7683 16.2227 13.7918 16.3088 13.7808C16.3948 13.7698 16.473 13.7252 16.5262 13.6566C17.1856 12.801 18.1682 12.3108 19.261 12.3108C21.1638 12.3108 22.7119 13.8589 22.7119 15.7618C22.7118 17.6647 21.1637 19.2127 19.2609 19.2127ZM13.381 11.4303C13.3067 11.3852 13.2175 11.3715 13.1331 11.3921C13.0487 11.4128 12.9759 11.4661 12.9308 11.5404C12.87 11.6404 12.7844 11.7261 12.6861 11.7897C12.6394 11.8197 12.5851 11.836 12.5296 11.8368C12.474 11.8376 12.4194 11.8229 12.3718 11.7942L11.8812 11.4964C11.7834 11.437 11.7299 11.323 11.741 11.2074C11.7522 11.0927 11.7889 10.982 11.8486 10.8834C11.8938 10.8091 11.9075 10.7199 11.8869 10.6354C11.8663 10.551 11.8129 10.4782 11.7386 10.4331C11.6643 10.3879 11.5752 10.3742 11.4907 10.3948C11.4063 10.4154 11.3335 10.4688 11.2883 10.5431C11.1773 10.7266 11.1089 10.9327 11.0883 11.1462L11.0877 11.1528C11.0531 11.5137 11.231 11.8685 11.5409 12.0568L12.0315 12.3545C12.1804 12.4446 12.3511 12.4921 12.5251 12.4918C12.7086 12.4921 12.8883 12.4394 13.0425 12.3399C13.2233 12.2227 13.3793 12.0648 13.4911 11.8806C13.5362 11.8063 13.55 11.7171 13.5293 11.6327C13.5087 11.5482 13.4553 11.4754 13.381 11.4303ZM20.9855 15.4103L18.6874 14.0828C18.3901 13.9078 18.0028 14.1353 18.0054 14.4766V17.1316C18.0023 17.4721 18.3925 17.6993 18.6874 17.5253L20.9855 16.1979C21.2826 16.0295 21.2816 15.5779 20.9855 15.4103ZM18.6608 16.7836V14.8245L20.3567 15.8041L18.6608 16.7836ZM12.1004 8.57072C10.5772 8.61066 9.31054 9.83262 9.21676 11.3526C9.19281 11.7397 9.24311 12.121 9.36613 12.4861L9.01714 13.4789C8.95242 13.663 8.99795 13.863 9.13587 14.001C9.27379 14.1389 9.47385 14.1844 9.65788 14.1197L10.3501 13.8764C10.8931 14.3021 11.5721 14.5252 12.2622 14.5065C13.8486 14.4635 15.1437 13.1366 15.149 11.5488C15.1517 10.739 14.8342 9.98133 14.2551 9.41532C13.6761 8.8494 12.9105 8.549 12.1004 8.57072ZM12.2444 13.8512C11.7032 13.865 11.1728 13.6903 10.7496 13.3566C10.6339 13.2654 10.4947 13.218 10.3537 13.218C10.2834 13.218 10.2126 13.2298 10.1442 13.2539L9.74121 13.3955L9.98712 12.696C10.034 12.5628 10.035 12.4166 9.98983 12.2843C9.89211 11.9976 9.85213 11.6978 9.87092 11.393C9.94403 10.2089 10.9308 9.25708 12.1175 9.22592C12.7493 9.20879 13.3456 9.44311 13.7968 9.88405C14.2481 10.3251 14.4954 10.9156 14.4933 11.5465C14.4892 12.7839 13.4803 13.8177 12.2444 13.8512Z" fill="black"/>
</mask>
<g mask="url(#mask0_2072_99)">
<path d="M29.2983 -3.99927H-4.31445V24.6892H29.2983V-3.99927Z" fill="url(#paint0_linear_2072_99)"/>
</g>
<defs>
<linearGradient id="paint0_linear_2072_99" x1="29.2983" y1="-3.99927" x2="-2.53505" y2="24.8581" gradientUnits="userSpaceOnUse">
<stop stop-color="#4F13FF"/>
<stop offset="1" stop-color="#7A1FFC"/>
</linearGradient>
</defs>
</svg>
