<svg width="21" height="23" viewBox="0 0 21 23" fill="none" xmlns="http://www.w3.org/2000/svg">
<mask id="mask0_2072_64" style="mask-type:alpha" maskUnits="userSpaceOnUse" x="0" y="0" width="21" height="23">
<path d="M19.7724 0.351318H1.87264C1.23869 0.351318 0.753906 0.836103 0.753906 1.47005V4.45334C0.753906 5.08729 1.23869 5.57208 1.87264 5.57208C2.50659 5.57208 2.99137 5.08729 2.99137 4.45334V2.58879H9.70378V20.4885H7.46631C6.83236 20.4885 6.34757 20.9733 6.34757 21.6073C6.34757 22.2412 6.83236 22.726 7.46631 22.726H14.1787C14.8127 22.726 15.2974 22.2412 15.2974 21.6073C15.2974 20.9733 14.8127 20.4885 14.1787 20.4885H11.9412V2.58879H18.6536V4.45334C18.6536 5.08729 19.1384 5.57208 19.7724 5.57208C20.4063 5.57208 20.8911 5.08729 20.8911 4.45334V1.47005C20.8911 0.836103 20.4063 0.351318 19.7724 0.351318Z" fill="black"/>
</mask>
<g mask="url(#mask0_2072_64)">
<path d="M32.5483 -1.24146H-1.06445V27.447H32.5483V-1.24146Z" fill="url(#paint0_linear_2072_64)"/>
</g>
<defs>
<linearGradient id="paint0_linear_2072_64" x1="32.5483" y1="-1.24145" x2="0.714947" y2="27.6159" gradientUnits="userSpaceOnUse">
<stop stop-color="#4F13FF"/>
<stop offset="1" stop-color="#7A1FFC"/>
</linearGradient>
</defs>
</svg>
