<svg width="25" height="23" viewBox="0 0 25 23" fill="none" xmlns="http://www.w3.org/2000/svg">
<mask id="mask0_2072_106" style="mask-type:alpha" maskUnits="userSpaceOnUse" x="0" y="0" width="25" height="23">
<path d="M4.46641 10.1678H9.66641C9.77249 10.1678 9.87424 10.1257 9.94925 10.0506C10.0243 9.97563 10.0664 9.87388 10.0664 9.7678C10.0664 9.66171 10.0243 9.55997 9.94925 9.48495C9.87424 9.40994 9.77249 9.3678 9.66641 9.3678H4.46641C4.36032 9.3678 4.25858 9.40994 4.18356 9.48495C4.10855 9.55997 4.06641 9.66171 4.06641 9.7678C4.06641 9.87388 4.10855 9.97563 4.18356 10.0506C4.25858 10.1257 4.36032 10.1678 4.46641 10.1678ZM14.8664 11.7678H4.46641C4.36032 11.7678 4.25858 11.8099 4.18356 11.885C4.10855 11.96 4.06641 12.0617 4.06641 12.1678C4.06641 12.2739 4.10855 12.3756 4.18356 12.4506C4.25858 12.5257 4.36032 12.5678 4.46641 12.5678H14.8664C14.9725 12.5678 15.0742 12.5257 15.1493 12.4506C15.2243 12.3756 15.2664 12.2739 15.2664 12.1678C15.2664 12.0617 15.2243 11.96 15.1493 11.885C15.0742 11.8099 14.9725 11.7678 14.8664 11.7678ZM14.8664 14.1678H4.46641C4.36032 14.1678 4.25858 14.2099 4.18356 14.285C4.10855 14.36 4.06641 14.4617 4.06641 14.5678C4.06641 14.6739 4.10855 14.7756 4.18356 14.8506C4.25858 14.9257 4.36032 14.9678 4.46641 14.9678H14.8664C14.9725 14.9678 15.0742 14.9257 15.1493 14.8506C15.2243 14.7756 15.2664 14.6739 15.2664 14.5678C15.2664 14.4617 15.2243 14.36 15.1493 14.285C15.0742 14.2099 14.9725 14.1678 14.8664 14.1678Z" fill="black"/>
<path d="M22.0956 0.995774L8.4388 0.967773C7.1308 0.967773 6.0668 2.03177 6.0668 3.33977V5.38937L2.8388 5.39617C1.5308 5.39617 0.466797 6.46017 0.466797 7.76817V16.2246C0.466797 17.5326 1.5308 18.5962 2.8388 18.5962H5.2668V22.5962C5.26677 22.6769 5.29117 22.7558 5.33681 22.8224C5.38245 22.889 5.44719 22.9403 5.5225 22.9694C5.59781 22.9985 5.68018 23.0042 5.75877 22.9856C5.83736 22.967 5.90848 22.9251 5.9628 22.8654L9.8444 18.5954L16.4948 18.5682C17.8028 18.5682 18.8668 17.5042 18.8668 16.1966V16.1514L20.9708 18.4658C21.0253 18.5251 21.0964 18.5666 21.1748 18.585C21.2533 18.6033 21.3354 18.5975 21.4106 18.5685C21.4857 18.5394 21.5504 18.4884 21.5961 18.4221C21.6418 18.3557 21.6664 18.2771 21.6668 18.1966V14.1966H22.0948C23.4028 14.1966 24.4668 13.1326 24.4668 11.825V3.36777C24.4661 2.73905 24.216 2.13627 23.7715 1.69162C23.327 1.24696 22.7243 0.996726 22.0956 0.995774ZM18.0668 16.1962C18.0663 16.6132 17.9002 17.0129 17.6052 17.3076C17.3101 17.6023 16.9102 17.7678 16.4932 17.7678L9.6652 17.7958C9.60974 17.796 9.55493 17.8077 9.50425 17.8302C9.45357 17.8527 9.40812 17.8856 9.3708 17.9266L6.0668 21.5614V18.1958C6.0668 18.0897 6.02465 17.9879 5.94964 17.9129C5.87463 17.8379 5.77288 17.7958 5.6668 17.7958H2.8388C2.42208 17.7954 2.02254 17.6296 1.72783 17.335C1.43313 17.0404 1.26733 16.6409 1.2668 16.2242V7.76777C1.26733 7.35088 1.43323 6.95122 1.72809 6.6565C2.02296 6.36179 2.4227 6.19609 2.8396 6.19577L6.4668 6.18817H6.4676L16.4948 6.16737C16.9116 6.1678 17.3112 6.33355 17.6059 6.62827C17.9006 6.92298 18.0664 7.32258 18.0668 7.73937V16.1962ZM23.6668 11.8242C23.6663 12.2409 23.5005 12.6404 23.2058 12.935C22.9111 13.2296 22.5115 13.3954 22.0948 13.3958H21.2668C21.1607 13.3958 21.059 13.4379 20.984 13.5129C20.9089 13.5879 20.8668 13.6897 20.8668 13.7958V17.1614L18.8668 14.9614V7.73977C18.8668 6.43177 17.8028 5.36777 16.494 5.36777L6.8668 5.38737V3.33937C6.86722 2.92272 7.03287 2.52324 7.32741 2.22855C7.62195 1.93386 8.02135 1.76801 8.438 1.76737L22.0944 1.79537H22.0952C22.512 1.7958 22.9116 1.96155 23.2063 2.25627C23.501 2.55098 23.6668 2.95058 23.6672 3.36737L23.6668 11.8242Z" fill="black"/>
</mask>
<g mask="url(#mask0_2072_106)">
<path d="M32.0727 -0.999268H-1.54004V27.6892H32.0727V-0.999268Z" fill="url(#paint0_linear_2072_106)"/>
</g>
<defs>
<linearGradient id="paint0_linear_2072_106" x1="32.0727" y1="-0.999266" x2="0.239361" y2="27.8581" gradientUnits="userSpaceOnUse">
<stop stop-color="#4F13FF"/>
<stop offset="1" stop-color="#7A1FFC"/>
</linearGradient>
</defs>
</svg>
