<svg width="18" height="23" viewBox="0 0 18 23" fill="none" xmlns="http://www.w3.org/2000/svg">
<mask id="mask0_2072_90" style="mask-type:alpha" maskUnits="userSpaceOnUse" x="0" y="0" width="18" height="23">
<path d="M11.7231 0.392358L11.7175 0.387C11.6676 0.335425 11.6076 0.294573 11.5413 0.266941C11.4751 0.239309 11.4038 0.225476 11.332 0.226287C11.3141 0.22543 11.296 0.227144 11.2785 0.231815H3.05194C1.57316 0.232115 0.374666 1.43078 0.374023 2.90969V20.0482C0.374709 21.5269 1.57316 22.7255 3.05194 22.726H14.9794C16.4581 22.7255 17.6568 21.5269 17.6573 20.0482V6.54066C17.6563 6.39874 17.6006 6.26265 17.5019 6.16065L11.7231 0.392358ZM11.8675 2.05272L15.8415 6.01601H13.4744C12.5881 6.01331 11.8701 5.29545 11.8676 4.40934L11.8675 2.05272ZM14.9847 21.6496H3.05194C2.16566 21.6471 1.44798 20.929 1.44511 20.0428V2.90416C1.44802 2.01805 2.16566 1.30003 3.05194 1.29754H10.7965V4.40939C10.797 5.88795 11.9956 7.08658 13.4744 7.08726H16.5862V20.0428C16.5879 20.9287 15.8707 21.6484 14.9847 21.6496V21.6496Z" fill="black"/>
<circle cx="5.0177" cy="17.8135" r="1.17688" fill="black"/>
<circle cx="9.01575" cy="17.8135" r="1.17688" fill="black"/>
<circle cx="13.0138" cy="17.8135" r="1.17688" fill="black"/>
</mask>
<g mask="url(#mask0_2072_90)">
<path d="M30.9975 -3.99927H-2.61523V24.6892H30.9975V-3.99927Z" fill="url(#paint0_linear_2072_90)"/>
</g>
<defs>
<linearGradient id="paint0_linear_2072_90" x1="30.9975" y1="-3.99927" x2="-0.835834" y2="24.8581" gradientUnits="userSpaceOnUse">
<stop stop-color="#4F13FF"/>
<stop offset="1" stop-color="#7A1FFC"/>
</linearGradient>
</defs>
</svg>
