<svg width="25" height="23" viewBox="0 0 25 23" fill="none" xmlns="http://www.w3.org/2000/svg">
<mask id="mask0_2072_79" style="mask-type:alpha" maskUnits="userSpaceOnUse" x="0" y="0" width="25" height="23">
<path d="M12.3457 0.597534H24.3457V1.30342H12.3457V0.597534ZM12.3457 4.12695H24.3457V4.83283H12.3457V4.12695ZM12.3457 7.65636H24.3457V8.36224H12.3457V7.65636ZM0.345703 11.1858H24.3457V11.8917H0.345703V11.1858ZM0.345703 14.7152H24.3457V15.4211H0.345703V14.7152ZM0.345703 18.2446H24.3457V18.9505H0.345703V18.2446ZM0.345703 21.774H24.3457V22.4799H0.345703V21.774ZM8.84735 8.154L5.99276 1.81059L3.13817 8.154L2.49441 7.86459L5.67088 0.80577C5.69877 0.743749 5.74399 0.691108 5.8011 0.654178C5.8582 0.617248 5.92476 0.597601 5.99276 0.597601C6.06077 0.597601 6.12732 0.617248 6.18443 0.654178C6.24153 0.691108 6.28675 0.743749 6.31464 0.80577L9.49112 7.86459L8.84735 8.154Z" fill="black"/>
<path d="M4.22852 4.83289H7.71381V5.53877H4.22852V4.83289Z" fill="black"/>
</mask>
<g mask="url(#mask0_2072_79)">
<path d="M31.2417 -2.80554H-2.37109V25.8829H31.2417V-2.80554Z" fill="url(#paint0_linear_2072_79)"/>
</g>
<defs>
<linearGradient id="paint0_linear_2072_79" x1="31.2417" y1="-2.80554" x2="-0.591694" y2="26.0518" gradientUnits="userSpaceOnUse">
<stop stop-color="#4F13FF"/>
<stop offset="1" stop-color="#7A1FFC"/>
</linearGradient>
</defs>
</svg>
