<svg width="24" height="23" viewBox="0 0 24 23" fill="none" xmlns="http://www.w3.org/2000/svg">
<mask id="mask0_101_296" style="mask-type:alpha" maskUnits="userSpaceOnUse" x="0" y="0" width="24" height="23">
<path fill-rule="evenodd" clip-rule="evenodd" d="M0 0.545455C0 0.244208 0.244208 0 0.545455 0H6.48166C6.78291 0 7.02712 0.244208 7.02712 0.545455V6.28879C7.02712 6.59004 6.78291 6.83425 6.48166 6.83425H0.545455C0.244208 6.83425 0 6.59004 0 6.28879V0.545455ZM1.09091 1.09091V5.74334H5.93621V1.09091H1.09091Z" fill="#333333"/>
<path fill-rule="evenodd" clip-rule="evenodd" d="M8.46509 1.33842C8.46509 1.03718 8.7093 0.792969 9.01054 0.792969H15.5682C15.8695 0.792969 16.1137 1.03718 16.1137 1.33842C16.1137 1.63967 15.8695 1.88388 15.5682 1.88388H9.01054C8.7093 1.88388 8.46509 1.63967 8.46509 1.33842Z" fill="#333333"/>
<path fill-rule="evenodd" clip-rule="evenodd" d="M8.46509 3.41704C8.46509 3.11579 8.7093 2.87158 9.01054 2.87158H23.4546C23.7559 2.87158 24.0001 3.11579 24.0001 3.41704C24.0001 3.71828 23.7559 3.96249 23.4546 3.96249H9.01054C8.7093 3.96249 8.46509 3.71828 8.46509 3.41704Z" fill="#333333"/>
<path fill-rule="evenodd" clip-rule="evenodd" d="M8.46509 5.49589C8.46509 5.19465 8.7093 4.95044 9.01054 4.95044H23.4546C23.7559 4.95044 24.0001 5.19465 24.0001 5.49589C24.0001 5.79714 23.7559 6.04135 23.4546 6.04135H9.01054C8.7093 6.04135 8.46509 5.79714 8.46509 5.49589Z" fill="#333333"/>
<path fill-rule="evenodd" clip-rule="evenodd" d="M0 8.28178C0 7.98054 0.244208 7.73633 0.545455 7.73633H6.48166C6.78291 7.73633 7.02712 7.98054 7.02712 8.28178V14.0251C7.02712 14.3264 6.78291 14.5706 6.48166 14.5706H0.545455C0.244208 14.5706 0 14.3264 0 14.0251V8.28178ZM1.09091 8.82724V13.4797H5.93621V8.82724H1.09091Z" fill="#333333"/>
<path fill-rule="evenodd" clip-rule="evenodd" d="M8.46509 9.07475C8.46509 8.77351 8.7093 8.5293 9.01054 8.5293H15.5682C15.8695 8.5293 16.1137 8.77351 16.1137 9.07475C16.1137 9.376 15.8695 9.62021 15.5682 9.62021H9.01054C8.7093 9.62021 8.46509 9.376 8.46509 9.07475Z" fill="#333333"/>
<path fill-rule="evenodd" clip-rule="evenodd" d="M8.46509 11.1536C8.46509 10.8524 8.7093 10.6082 9.01054 10.6082H23.4546C23.7559 10.6082 24.0001 10.8524 24.0001 11.1536C24.0001 11.4549 23.7559 11.6991 23.4546 11.6991H9.01054C8.7093 11.6991 8.46509 11.4549 8.46509 11.1536Z" fill="#333333"/>
<path fill-rule="evenodd" clip-rule="evenodd" d="M8.46509 13.2322C8.46509 12.931 8.7093 12.6868 9.01054 12.6868H23.4546C23.7559 12.6868 24.0001 12.931 24.0001 13.2322C24.0001 13.5335 23.7559 13.7777 23.4546 13.7777H9.01054C8.7093 13.7777 8.46509 13.5335 8.46509 13.2322Z" fill="#333333"/>
<path fill-rule="evenodd" clip-rule="evenodd" d="M0 16.0181C0 15.7169 0.244208 15.4727 0.545455 15.4727H6.48166C6.78291 15.4727 7.02712 15.7169 7.02712 16.0181V21.7614C7.02712 22.0627 6.78291 22.3069 6.48166 22.3069H0.545455C0.244208 22.3069 0 22.0627 0 21.7614V16.0181ZM1.09091 16.5636V21.216H5.93621V16.5636H1.09091Z" fill="#333333"/>
<path fill-rule="evenodd" clip-rule="evenodd" d="M8.46509 16.8111C8.46509 16.5098 8.7093 16.2656 9.01054 16.2656H15.5682C15.8695 16.2656 16.1137 16.5098 16.1137 16.8111C16.1137 17.1123 15.8695 17.3565 15.5682 17.3565H9.01054C8.7093 17.3565 8.46509 17.1123 8.46509 16.8111Z" fill="#333333"/>
<path fill-rule="evenodd" clip-rule="evenodd" d="M8.46509 18.8899C8.46509 18.5887 8.7093 18.3445 9.01054 18.3445H23.4546C23.7559 18.3445 24.0001 18.5887 24.0001 18.8899C24.0001 19.1912 23.7559 19.4354 23.4546 19.4354H9.01054C8.7093 19.4354 8.46509 19.1912 8.46509 18.8899Z" fill="#333333"/>
<path fill-rule="evenodd" clip-rule="evenodd" d="M8.46509 20.9686C8.46509 20.6673 8.7093 20.4231 9.01054 20.4231H23.4546C23.7559 20.4231 24.0001 20.6673 24.0001 20.9686C24.0001 21.2698 23.7559 21.514 23.4546 21.514H9.01054C8.7093 21.514 8.46509 21.2698 8.46509 20.9686Z" fill="#333333"/>
</mask>
<g mask="url(#mask0_101_296)">
<path d="M28.8335 -3.09766H-4.38354V25.4048H28.8335V-3.09766Z" fill="url(#paint0_linear_101_296)"/>
</g>
<defs>
<linearGradient id="paint0_linear_101_296" x1="28.8335" y1="-3.09766" x2="-2.77625" y2="25.4048" gradientUnits="userSpaceOnUse">
<stop stop-color="#4F13FF"/>
<stop offset="1" stop-color="#7A1FFC"/>
</linearGradient>
</defs>
</svg>
