<svg width="24" height="18" viewBox="0 0 24 18" fill="none" xmlns="http://www.w3.org/2000/svg">
<path d="M21.7918 0H2.28523C1.06095 0 0 1.07825 0 2.32251V11.3641C0 12.6912 1.06095 13.6865 2.28523 13.6865H7.18233C7.5088 16.0922 9.54932 18 11.9979 18C14.4463 18 16.4867 16.0922 16.8133 13.6865H21.7104C22.9347 13.6865 23.9956 12.6083 23.9956 11.3641V2.32251C24.0772 1.07825 23.0162 0 21.7918 0ZM15.6705 13.1058C15.6705 13.3547 15.6705 13.5208 15.5889 13.7697C15.3441 15.5114 13.7933 16.8387 11.9979 16.8387C10.2023 16.8387 8.73308 15.5114 8.40663 13.7697C8.40663 13.6954 8.39029 13.6049 8.37258 13.5049L8.37202 13.5033C8.3498 13.3801 8.32508 13.2429 8.32508 13.1058C8.32508 12.8572 8.32508 12.6912 8.40663 12.4423C8.56998 11.5301 9.05953 10.7834 9.7125 10.2027C10.3654 9.70511 11.1001 9.37334 11.9979 9.37334C12.8955 9.37334 13.6302 9.70511 14.2831 10.2027C14.9361 10.7834 15.4258 11.5301 15.5889 12.4423C15.6705 12.6083 15.6705 12.8572 15.6705 13.1058ZM22.8531 11.3641C22.8531 11.9447 22.3633 12.4423 21.7918 12.4423H16.8947C16.8133 11.6129 16.4867 10.8663 15.9969 10.2027C15.0994 8.95844 13.7117 8.12908 12.0794 8.12908C10.4472 8.12908 8.97797 8.95844 8.16174 10.2027C7.67212 10.8663 7.34568 11.6129 7.26392 12.4423H2.367C1.79564 12.4423 1.30584 11.9447 1.30584 11.3641V2.32251C1.30584 1.74202 1.79564 1.24426 2.367 1.24426H21.8735C22.4449 1.24426 22.9347 1.74202 22.9347 2.32251V11.3641H22.8531ZM14.1198 12.6083H12.4875V12.4423V10.9494C12.4875 10.783 12.4146 10.6537 12.2931 10.5862C12.2328 10.5528 12.1607 10.5345 12.0794 10.5345C11.8345 10.5345 11.6714 10.7005 11.6714 10.9494V12.4423V12.6083H10.0389C9.79421 12.6083 9.63087 12.7741 9.63087 13.023C9.63087 13.2719 9.79421 13.438 10.0389 13.438H11.6714V13.6036V15.0969C11.6714 15.3458 11.8345 15.5114 12.0794 15.5114C12.3243 15.5114 12.4875 15.3458 12.4875 15.0969V13.6036V13.438H14.1198C14.3647 13.438 14.528 13.2719 14.528 13.023C14.528 12.9321 14.4543 12.8162 14.3609 12.7299C14.2839 12.6591 14.1935 12.6083 14.1198 12.6083ZM4.02524 4.09091C3.58064 4.09091 3.22019 4.45724 3.22019 4.90909C3.22019 5.36094 3.58064 5.72727 4.02524 5.72727H20.1262C20.5707 5.72727 20.9312 5.36094 20.9312 4.90909C20.9312 4.45724 20.5707 4.09091 20.1262 4.09091H4.02524Z" fill="url(#paint0_linear_101_337)"/>
<defs>
<linearGradient id="paint0_linear_101_337" x1="3.42849e-07" y1="8.18182" x2="28.9817" y2="8.18182" gradientUnits="userSpaceOnUse">
<stop offset="0.0182225" stop-color="#4F13FF"/>
<stop offset="1" stop-color="#7A1FFC"/>
</linearGradient>
</defs>
</svg>
