<svg width="24" height="16" viewBox="0 0 24 16" fill="none" xmlns="http://www.w3.org/2000/svg">
<mask id="mask0_101_316" style="mask-type:alpha" maskUnits="userSpaceOnUse" x="0" y="0" width="24" height="16">
<path fill-rule="evenodd" clip-rule="evenodd" d="M4.05151 0.49896C4.05151 0.223392 4.23472 0 4.46072 0H19.5195C19.7455 0 19.9288 0.223392 19.9288 0.49896V15.1933C19.9288 15.4689 19.7455 15.6923 19.5195 15.6923H4.46072C4.23472 15.6923 4.05151 15.4689 4.05151 15.1933V0.49896ZM4.86993 0.997921V14.6944H19.1103V0.997921H4.86993Z" fill="#333333"/>
<path fill-rule="evenodd" clip-rule="evenodd" d="M5.91309 7.83368C5.91309 7.5581 6.09629 7.33472 6.32229 7.33472H17.6573C17.8833 7.33472 18.0665 7.5581 18.0665 7.83368C18.0665 8.10925 17.8833 8.33264 17.6573 8.33264H6.32229C6.09629 8.33264 5.91309 8.10925 5.91309 7.83368Z" fill="#333333"/>
<path fill-rule="evenodd" clip-rule="evenodd" d="M5.91309 10.2536C5.91309 9.97802 6.09629 9.75464 6.32229 9.75464H17.6573C17.8833 9.75464 18.0665 9.97802 18.0665 10.2536C18.0665 10.5292 17.8833 10.7526 17.6573 10.7526H6.32229C6.09629 10.7526 5.91309 10.5292 5.91309 10.2536Z" fill="#333333"/>
<path fill-rule="evenodd" clip-rule="evenodd" d="M5.91309 12.6735C5.91309 12.3979 6.09629 12.1746 6.32229 12.1746H10.844C11.07 12.1746 11.2532 12.3979 11.2532 12.6735C11.2532 12.9491 11.07 13.1725 10.844 13.1725H6.32229C6.09629 13.1725 5.91309 12.9491 5.91309 12.6735Z" fill="#333333"/>
<path fill-rule="evenodd" clip-rule="evenodd" d="M20.9895 4.61197C21.1493 4.4171 21.4083 4.4171 21.5681 4.61197L23.8801 7.4311C23.9568 7.52468 24 7.65159 24 7.78391C24 7.91624 23.9568 8.04315 23.8801 8.13673L21.5681 10.9559C21.4083 11.1507 21.1493 11.1507 20.9895 10.9559C20.8297 10.761 20.8297 10.4451 20.9895 10.2502L23.0122 7.78391L20.9895 5.3176C20.8297 5.12276 20.8297 4.80682 20.9895 4.61197Z" fill="#333333"/>
<path fill-rule="evenodd" clip-rule="evenodd" d="M3.01058 4.61197C3.17039 4.80682 3.17039 5.12276 3.01058 5.3176L0.987914 7.78391L3.01058 10.2502C3.17039 10.4451 3.17039 10.761 3.01058 10.9559C2.85078 11.1507 2.59167 11.1507 2.43188 10.9559L0.119854 8.13673C0.0431128 8.04315 0 7.91624 0 7.78391C0 7.65159 0.0431128 7.52468 0.119854 7.4311L2.43188 4.61197C2.59167 4.4171 2.85078 4.4171 3.01058 4.61197Z" fill="#333333"/>
</mask>
<g mask="url(#mask0_101_316)">
<path d="M27.8259 -7.23486H-3.8877V25.946H27.8259V-7.23486Z" fill="url(#paint0_linear_101_316)"/>
</g>
<defs>
<linearGradient id="paint0_linear_101_316" x1="27.8259" y1="-7.23486" x2="-7.54665" y2="18.923" gradientUnits="userSpaceOnUse">
<stop stop-color="#4F13FF"/>
<stop offset="1" stop-color="#7A1FFC"/>
</linearGradient>
</defs>
</svg>
