<svg width="24" height="23" viewBox="0 0 24 23" fill="none" xmlns="http://www.w3.org/2000/svg">
<rect y="0.699219" width="24" height="4.60156" rx="2" fill="#5B16FE"/>
<circle cx="20.8288" cy="2.99998" r="1.09538" fill="white"/>
<path fill-rule="evenodd" clip-rule="evenodd" d="M20.0072 2.69815L20.2657 2.53345L20.8288 3.17133L21.3918 2.53345L21.6503 2.69815L20.8288 3.62883L20.0072 2.69815Z" fill="#5B16FE"/>
<path d="M9.53367 3.814V2.97692H9.41354V2.75764H9.53367V2.70426C9.53367 2.44493 9.68049 2.32481 9.97795 2.33243V2.55743C9.84829 2.55362 9.80443 2.59557 9.80443 2.71379V2.75764H9.98939V2.97692H9.80443V3.814H9.53367Z" fill="white"/>
<path d="M9.30648 3.14477C9.30648 3.54519 9.0033 3.8274 8.62576 3.8274C8.25012 3.8274 7.94313 3.54519 7.94313 3.14477C7.94313 2.74625 8.25012 2.46405 8.62576 2.46405C9.00521 2.46405 9.30648 2.74625 9.30648 3.14477ZM8.21771 3.14477C8.21771 3.41553 8.3836 3.58905 8.62576 3.58905C8.86601 3.58905 9.0319 3.41553 9.0319 3.14477C9.0319 2.87401 8.86601 2.7043 8.62576 2.7043C8.3836 2.7043 8.21771 2.87401 8.21771 3.14477Z" fill="white"/>
<path d="M6.83058 2.95976C6.70282 2.95976 6.60176 3.04175 6.58079 3.18666H7.08227C7.07846 3.04747 6.96787 2.95976 6.83058 2.95976ZM7.33206 3.48221C7.27486 3.67671 7.09943 3.83116 6.83821 3.83116C6.53121 3.83116 6.30812 3.6176 6.30812 3.28582C6.30812 2.95213 6.52549 2.74048 6.83821 2.74048C7.14329 2.74048 7.35876 2.94832 7.35876 3.26294C7.35876 3.29726 7.35685 3.33158 7.35113 3.3659H6.57888C6.59223 3.52226 6.69901 3.60997 6.83248 3.60997C6.94689 3.60997 7.00981 3.55277 7.04414 3.48221H7.33206Z" fill="white"/>
<path d="M5.84608 3.81403V2.40302H6.11303V3.81403H5.84608Z" fill="white"/>
<path d="M4.82074 2.91212C4.88557 2.81488 5.00951 2.74051 5.16968 2.74051C5.44044 2.74051 5.65209 2.95217 5.65209 3.28204C5.65209 3.61191 5.44044 3.83119 5.16968 3.83119C5.00379 3.83119 4.88557 3.75492 4.82074 3.66339V3.81403H4.55379V2.40302H4.82074V2.91212ZM5.37942 3.28204C5.37942 3.08183 5.24404 2.97505 5.09913 2.97505C4.95612 2.97505 4.82074 3.08564 4.82074 3.28585C4.82074 3.48606 4.95612 3.59666 5.09913 3.59666C5.24404 3.59666 5.37942 3.48225 5.37942 3.28204Z" fill="white"/>
<path d="M3.19286 3.282C3.19286 2.95213 3.40642 2.74048 3.67527 2.74048C3.84497 2.74048 3.96129 2.82056 4.02421 2.90827V2.75764H4.29307V3.81399H4.02421V3.65955C3.96129 3.75107 3.84116 3.83116 3.67336 3.83116C3.40642 3.83116 3.19286 3.61188 3.19286 3.282ZM4.02421 3.28582C4.02421 3.08561 3.89074 2.97501 3.74391 2.97501C3.60091 2.97501 3.46553 3.08179 3.46553 3.282C3.46553 3.48221 3.60091 3.59662 3.74391 3.59662C3.89074 3.59662 4.02421 3.48603 4.02421 3.28582Z" fill="white"/>
<path d="M2.09045 2.69856V2.48309H3.06672V2.69856H2.71206V3.81402H2.44511V2.69856H2.09045Z" fill="white"/>
<circle cx="2.76738" cy="8.88242" r="1.77933" fill="#5B16FE"/>
<circle cx="2.76738" cy="14.2431" r="1.77933" fill="#5B16FE"/>
<circle cx="2.76738" cy="19.6037" r="1.77933" fill="#5B16FE"/>
<rect x="6.11304" y="7.44409" width="15.8111" height="1.09735" rx="0.548676" fill="#5B16FE"/>
<rect x="6.11304" y="12.8047" width="12.0861" height="1.09735" rx="0.548676" fill="#5B16FE"/>
<rect x="6.11304" y="18.1654" width="15.2193" height="1.09735" rx="0.548676" fill="#5B16FE"/>
<rect x="6.11304" y="9.22339" width="10.322" height="1.09735" rx="0.548676" fill="#5B16FE"/>
<rect x="6.11304" y="14.584" width="14.7476" height="1.09735" rx="0.548676" fill="#5B16FE"/>
<rect x="6.11304" y="19.9447" width="12.861" height="1.09735" rx="0.548676" fill="#5B16FE"/>
</svg>
