<svg width="24" height="23" viewBox="0 0 24 23" fill="none" xmlns="http://www.w3.org/2000/svg">
<rect y="0.699219" width="24" height="4.60156" rx="2" fill="#8655F9"/>
<circle cx="20.8288" cy="2.99998" r="1.09538" fill="white"/>
<path fill-rule="evenodd" clip-rule="evenodd" d="M20.0072 2.69815L20.2657 2.53345L20.8288 3.17133L21.3918 2.53345L21.6503 2.69815L20.8288 3.62883L20.0072 2.69815Z" fill="#5B16FE"/>
<circle cx="2.61017" cy="8.88242" r="1.77933" fill="#5B16FE"/>
<circle cx="2.61017" cy="14.2431" r="1.77933" fill="#5B16FE"/>
<circle cx="2.61017" cy="19.6037" r="1.77933" fill="#5B16FE"/>
<rect x="5.53145" y="7.44409" width="17.887" height="1.09735" rx="0.548676" fill="#9A70FF"/>
<rect x="5.53145" y="12.8047" width="13.6729" height="1.09735" rx="0.548676" fill="#9A70FF"/>
<rect x="5.53145" y="18.1654" width="17.2175" height="1.09735" rx="0.548676" fill="#9A70FF"/>
<rect x="5.53145" y="9.22339" width="11.6772" height="1.09735" rx="0.548676" fill="#9A70FF"/>
<rect x="5.53145" y="14.584" width="16.6839" height="1.09735" rx="0.548676" fill="#9A70FF"/>
<rect x="5.53145" y="19.9447" width="14.5495" height="1.09735" rx="0.548676" fill="#9A70FF"/>
</svg>
