<svg width="298" height="298" viewBox="0 0 298 298" fill="none" xmlns="http://www.w3.org/2000/svg">
<g clip-path="url(#clip0_7_2)">
<path d="M244.017 215.338H53.9834C51.0801 215.338 48.3677 213.903 46.733 211.505C21.6602 174.737 19.7368 104.009 19.5913 93.5092C19.5822 93.0977 19.5776 92.6817 19.5776 92.2679C19.5776 87.4275 23.4973 83.501 28.3377 83.4919H28.3559C33.1872 83.4919 37.1136 87.4002 37.1318 92.2338C37.1318 92.2929 37.1341 92.8113 37.1545 93.7298C37.9275 118.7 58.4828 138.774 83.6375 138.774C109.281 138.774 130.143 117.911 130.143 92.2679C130.143 87.4207 134.074 83.4919 138.919 83.4919H159.079C163.926 83.4919 167.855 87.4207 167.855 92.2679C167.855 117.911 188.719 138.774 214.363 138.774C239.54 138.774 260.109 118.664 260.848 93.6616C260.864 92.784 260.868 92.2929 260.868 92.2361C260.886 87.4002 264.811 83.4919 269.644 83.4919H269.66C274.501 83.501 278.42 87.4275 278.42 92.2679C278.42 92.6839 278.416 93.0977 278.409 93.5115C278.261 104.009 276.338 174.739 251.267 211.507C249.632 213.903 246.918 215.338 244.017 215.338Z" fill="#FFDB80"/>
<path d="M269.66 83.4919C269.655 83.4919 269.651 83.4919 269.644 83.4919C264.813 83.4919 260.886 87.4002 260.868 92.2338C260.868 92.2929 260.866 92.784 260.848 93.6616C260.109 118.662 239.54 138.774 214.362 138.774C188.719 138.774 167.857 117.911 167.857 92.2679C167.857 87.4207 163.926 83.4919 159.081 83.4919H149.002V215.336H244.017C246.92 215.336 249.632 213.901 251.267 211.505C276.34 174.737 278.263 104.006 278.409 93.5092C278.418 93.0977 278.422 92.6817 278.422 92.2679C278.42 87.4275 274.5 83.501 269.66 83.4919V83.4919Z" fill="#FFC02E"/>
<path d="M149 53.5469C133.365 53.5469 120.644 66.2674 120.644 81.9027C120.644 97.538 133.365 110.256 149 110.256C164.635 110.256 177.356 97.538 177.356 81.9027C177.356 66.2674 164.635 53.5469 149 53.5469Z" fill="#FFC02E"/>
<path d="M149.002 53.5469V110.259C164.637 110.256 177.356 97.538 177.356 81.9027C177.356 66.2674 164.635 53.5491 149.002 53.5469V53.5469Z" fill="#FFA73B"/>
<path d="M28.3558 75.4299C12.7206 75.4299 0 88.1504 0 103.786C0 119.421 12.7206 132.142 28.3558 132.142C43.9911 132.142 56.7094 119.421 56.7094 103.786C56.7094 88.1504 43.9911 75.4299 28.3558 75.4299Z" fill="#FFC02E"/>
<path d="M269.644 75.4299C254.009 75.4299 241.291 88.1504 241.291 103.786C241.291 119.419 254.009 132.139 269.644 132.139C285.279 132.139 298 119.419 298 103.786C298 88.1504 285.279 75.4299 269.644 75.4299Z" fill="#FFA73B"/>
<path d="M244.017 244.128H53.9833C49.1361 244.128 45.2074 240.199 45.2074 235.352V209.181H252.792V235.352C252.792 240.199 248.864 244.128 244.017 244.128V244.128Z" fill="#FFC02E"/>
<path d="M149.002 244.128H244.017C248.864 244.128 252.792 240.199 252.792 235.352V209.181H149.002V244.128Z" fill="#FFA73B"/>
</g>
<defs>
<clipPath id="clip0_7_2">
<rect width="298" height="298" fill="white"/>
</clipPath>
</defs>
</svg>
