<svg width="40" height="40" viewBox="0 0 40 40" fill="none" xmlns="http://www.w3.org/2000/svg">
<mask id="mask0_104_322" style="mask-type:alpha" maskUnits="userSpaceOnUse" x="0" y="0" width="40" height="40">
<circle cx="20" cy="20" r="20" fill="#D9D9D9"/>
</mask>
<g mask="url(#mask0_104_322)">
<path d="M40.3297 -0.32959H-0.329651V40.3297H40.3297V-0.32959Z" fill="url(#paint0_linear_104_322)"/>
<path d="M19.0631 11.9988L12.3362 12.0152C12.1555 12.0157 12.0095 12.1624 12.0099 12.3431L12.0216 17.1338C12.0221 17.3145 12.1689 17.4605 12.3495 17.4601L19.0764 17.4436C19.2571 17.4432 19.4032 17.2964 19.4027 17.1158L19.391 12.325C19.3905 12.1444 19.2438 11.9983 19.0631 11.9988Z" fill="white"/>
<path d="M16.2336 18.0244H12.2111C12.0985 18.0244 12.0072 18.1157 12.0072 18.2283C12.0072 18.3409 12.0985 18.4322 12.2111 18.4322H16.2336C16.3462 18.4322 16.4375 18.3409 16.4375 18.2283C16.4375 18.1157 16.3462 18.0244 16.2336 18.0244Z" fill="white"/>
<path d="M19.1069 18.0244H17.0892C16.9765 18.0244 16.8853 18.1157 16.8853 18.2283C16.8853 18.3409 16.9765 18.4322 17.0892 18.4322H19.1069C19.2196 18.4322 19.3108 18.3409 19.3108 18.2283C19.3108 18.1157 19.2196 18.0244 19.1069 18.0244Z" fill="#D2B6FF"/>
<path d="M14.0584 18.8909H12.2111C12.0985 18.8909 12.0072 18.9821 12.0072 19.0948C12.0072 19.2074 12.0985 19.2987 12.2111 19.2987H14.0584C14.171 19.2987 14.2623 19.2074 14.2623 19.0948C14.2623 18.9821 14.171 18.8909 14.0584 18.8909Z" fill="#D2B6FF"/>
<path d="M19.1869 18.8909H14.9621C14.8495 18.8909 14.7582 18.9821 14.7582 19.0948C14.7582 19.2074 14.8495 19.2987 14.9621 19.2987H19.1869C19.2995 19.2987 19.3908 19.2074 19.3908 19.0948C19.3908 18.9821 19.2995 18.8909 19.1869 18.8909Z" fill="white"/>
<path d="M14.4279 14.4753L13.7485 15.3121C13.7142 15.3542 13.6926 15.4052 13.6862 15.4592C13.6798 15.5131 13.6888 15.5678 13.7122 15.6168C13.7356 15.6658 13.7724 15.7072 13.8184 15.7361C13.8644 15.7651 13.9176 15.7803 13.972 15.7802H15.3307C15.385 15.7802 15.4381 15.7648 15.484 15.7358C15.5299 15.7068 15.5666 15.6654 15.5899 15.6164C15.6132 15.5674 15.6221 15.5128 15.6157 15.459C15.6092 15.4051 15.5876 15.3542 15.5534 15.3121L14.874 14.4753C14.847 14.4422 14.813 14.4155 14.7744 14.3972C14.7358 14.3789 14.6937 14.3694 14.6509 14.3694C14.6082 14.3694 14.5661 14.3789 14.5275 14.3972C14.4889 14.4155 14.4549 14.4422 14.4279 14.4753Z" fill="#F9CFD9"/>
<path d="M16.0501 13.9009L14.9433 15.2564C14.905 15.3031 14.8807 15.3597 14.8732 15.4196C14.8657 15.4796 14.8753 15.5404 14.9009 15.5952C14.9265 15.6499 14.967 15.6963 15.0178 15.729C15.0686 15.7617 15.1276 15.7794 15.188 15.78H17.4072C17.4676 15.7794 17.5266 15.7617 17.5774 15.729C17.6282 15.6963 17.6687 15.6499 17.6943 15.5952C17.7199 15.5404 17.7295 15.4796 17.722 15.4196C17.7145 15.3597 17.6902 15.3031 17.6519 15.2564L16.5468 13.9009C16.5167 13.864 16.4788 13.8343 16.4359 13.8139C16.3929 13.7935 16.346 13.783 16.2984 13.783C16.2509 13.783 16.2039 13.7935 16.161 13.8139C16.118 13.8343 16.0801 13.864 16.0501 13.9009Z" fill="#F7849A"/>
<path d="M14.6505 14.1513C14.7807 14.1513 14.8862 14.0458 14.8862 13.9156C14.8862 13.7855 14.7807 13.6799 14.6505 13.6799C14.5204 13.6799 14.4148 13.7855 14.4148 13.9156C14.4148 14.0458 14.5204 14.1513 14.6505 14.1513Z" fill="#F7849A"/>
<path d="M27.6994 11.9988L20.9724 12.0152C20.7918 12.0157 20.6457 12.1624 20.6462 12.3431L20.6579 17.1338C20.6584 17.3145 20.8051 17.4605 20.9857 17.4601L27.7127 17.4436C27.8933 17.4432 28.0394 17.2964 28.039 17.1158L28.0272 12.325C28.0268 12.1444 27.88 11.9983 27.6994 11.9988Z" fill="white"/>
<path d="M24.8699 18.0244H20.8474C20.7348 18.0244 20.6435 18.1157 20.6435 18.2283C20.6435 18.3409 20.7348 18.4322 20.8474 18.4322H24.8699C24.9825 18.4322 25.0738 18.3409 25.0738 18.2283C25.0738 18.1157 24.9825 18.0244 24.8699 18.0244Z" fill="white"/>
<path d="M27.7432 18.0244H25.7254C25.6128 18.0244 25.5215 18.1157 25.5215 18.2283C25.5215 18.3409 25.6128 18.4322 25.7254 18.4322H27.7432C27.8558 18.4322 27.9471 18.3409 27.9471 18.2283C27.9471 18.1157 27.8558 18.0244 27.7432 18.0244Z" fill="#D2B6FF"/>
<path d="M22.6947 18.8909H20.8474C20.7348 18.8909 20.6435 18.9821 20.6435 19.0948C20.6435 19.2074 20.7348 19.2987 20.8474 19.2987H22.6947C22.8073 19.2987 22.8986 19.2074 22.8986 19.0948C22.8986 18.9821 22.8073 18.8909 22.6947 18.8909Z" fill="#D2B6FF"/>
<path d="M27.8232 18.8909H23.5984C23.4858 18.8909 23.3945 18.9821 23.3945 19.0948C23.3945 19.2074 23.4858 19.2987 23.5984 19.2987H27.8232C27.9358 19.2987 28.0271 19.2074 28.0271 19.0948C28.0271 18.9821 27.9358 18.8909 27.8232 18.8909Z" fill="white"/>
<path d="M23.0642 14.4752L22.3848 15.312C22.3504 15.3543 22.3288 15.4055 22.3225 15.4596C22.3161 15.5136 22.3252 15.5684 22.3488 15.6175C22.3725 15.6666 22.4095 15.708 22.4557 15.7368C22.502 15.7656 22.5554 15.7806 22.6099 15.7802H23.9687C24.0229 15.7802 24.0761 15.7648 24.1219 15.7358C24.1677 15.7068 24.2044 15.6654 24.2278 15.6164C24.2511 15.5674 24.26 15.5128 24.2535 15.459C24.2471 15.4051 24.2256 15.3541 24.1913 15.312L23.507 14.4752C23.48 14.4427 23.4462 14.4166 23.4079 14.3986C23.3696 14.3807 23.3278 14.3713 23.2856 14.3713C23.2433 14.3713 23.2016 14.3807 23.1633 14.3986C23.125 14.4166 23.0912 14.4427 23.0642 14.4752Z" fill="#BCDFF7"/>
<path d="M24.6864 13.9009L23.578 15.2564C23.5398 15.3031 23.5155 15.3597 23.508 15.4196C23.5004 15.4796 23.51 15.5404 23.5356 15.5952C23.5611 15.6499 23.6017 15.6963 23.6525 15.729C23.7033 15.7617 23.7623 15.7794 23.8227 15.78H26.0435C26.104 15.7794 26.1629 15.7617 26.2138 15.729C26.2646 15.6963 26.3051 15.6499 26.3306 15.5952C26.3562 15.5404 26.3658 15.4796 26.3583 15.4196C26.3508 15.3597 26.3265 15.3031 26.2882 15.2564L25.1831 13.9009C25.153 13.864 25.1152 13.8343 25.0722 13.8139C25.0293 13.7935 24.9823 13.783 24.9347 13.783C24.8872 13.783 24.8402 13.7935 24.7973 13.8139C24.7543 13.8343 24.7165 13.864 24.6864 13.9009Z" fill="#5BAFF4"/>
<path d="M23.2868 14.1513C23.417 14.1513 23.5225 14.0458 23.5225 13.9156C23.5225 13.7855 23.417 13.6799 23.2868 13.6799C23.1567 13.6799 23.0511 13.7855 23.0511 13.9156C23.0511 14.0458 23.1567 14.1513 23.2868 14.1513Z" fill="#5BAFF4"/>
<path d="M19.0403 20.689L12.3133 20.7054C12.1327 20.7058 11.9866 20.8527 11.9871 21.0333L11.9988 25.8241C11.9992 26.0047 12.146 26.1507 12.3266 26.1503L19.0536 26.1338C19.2342 26.1334 19.3803 25.9866 19.3799 25.806L19.3682 21.0153C19.3677 20.8346 19.2209 20.6886 19.0403 20.689Z" fill="white"/>
<path d="M16.2108 26.7148H12.1883C12.0757 26.7148 11.9844 26.8061 11.9844 26.9187C11.9844 27.0314 12.0757 27.1226 12.1883 27.1226H16.2108C16.3234 27.1226 16.4147 27.0314 16.4147 26.9187C16.4147 26.8061 16.3234 26.7148 16.2108 26.7148Z" fill="white"/>
<path d="M19.0841 26.7148H17.0663C16.9537 26.7148 16.8624 26.8061 16.8624 26.9187C16.8624 27.0314 16.9537 27.1226 17.0663 27.1226H19.0841C19.1967 27.1226 19.288 27.0314 19.288 26.9187C19.288 26.8061 19.1967 26.7148 19.0841 26.7148Z" fill="#D2B6FF"/>
<path d="M14.0356 27.5811H12.1883C12.0757 27.5811 11.9844 27.6723 11.9844 27.785C11.9844 27.8976 12.0757 27.9888 12.1883 27.9888H14.0356C14.1482 27.9888 14.2395 27.8976 14.2395 27.785C14.2395 27.6723 14.1482 27.5811 14.0356 27.5811Z" fill="#D2B6FF"/>
<path d="M19.164 27.5811H14.9392C14.8266 27.5811 14.7354 27.6723 14.7354 27.785C14.7354 27.8976 14.8266 27.9888 14.9392 27.9888H19.164C19.2766 27.9888 19.3679 27.8976 19.3679 27.785C19.3679 27.6723 19.2766 27.5811 19.164 27.5811Z" fill="white"/>
<path d="M14.405 23.1654L13.7256 24.0022C13.6914 24.0443 13.6698 24.0953 13.6634 24.1491C13.6569 24.203 13.6659 24.2576 13.6892 24.3066C13.7125 24.3556 13.7492 24.397 13.795 24.4259C13.8409 24.455 13.894 24.4704 13.9483 24.4704H15.3071C15.3614 24.4705 15.4146 24.4552 15.4606 24.4263C15.5066 24.3974 15.5434 24.356 15.5668 24.3069C15.5902 24.2579 15.5992 24.2033 15.5928 24.1494C15.5864 24.0954 15.5648 24.0444 15.5305 24.0022L14.8512 23.1654C14.8242 23.1323 14.7901 23.1057 14.7515 23.0874C14.713 23.069 14.6708 23.0596 14.6281 23.0596C14.5854 23.0596 14.5432 23.069 14.5046 23.0874C14.4661 23.1057 14.432 23.1323 14.405 23.1654Z" fill="#D3EADD"/>
<path d="M16.0273 22.5912L14.9189 23.9468C14.8806 23.9935 14.8563 24.0501 14.8488 24.11C14.8413 24.17 14.8509 24.2308 14.8765 24.2856C14.902 24.3403 14.9425 24.3867 14.9933 24.4194C15.0441 24.4521 15.1031 24.4697 15.1635 24.4704H17.3844C17.4448 24.4697 17.5038 24.4521 17.5546 24.4194C17.6054 24.3867 17.6459 24.3403 17.6715 24.2856C17.6971 24.2308 17.7067 24.17 17.6992 24.11C17.6917 24.0501 17.6674 23.9935 17.6291 23.9468L16.524 22.5912C16.4939 22.5544 16.456 22.5247 16.4131 22.5043C16.3701 22.4839 16.3232 22.4734 16.2756 22.4734C16.2281 22.4734 16.1811 22.4839 16.1382 22.5043C16.0952 22.5247 16.0573 22.5544 16.0273 22.5912Z" fill="#8EDDB3"/>
<path d="M14.6277 22.8415C14.7579 22.8415 14.8634 22.736 14.8634 22.6058C14.8634 22.4757 14.7579 22.3701 14.6277 22.3701C14.4976 22.3701 14.392 22.4757 14.392 22.6058C14.392 22.736 14.4976 22.8415 14.6277 22.8415Z" fill="#8EDDB3"/>
<path d="M27.6766 20.689L20.9496 20.7054C20.769 20.7058 20.6229 20.8526 20.6234 21.0332L20.6351 25.824C20.6355 26.0046 20.7823 26.1507 20.9629 26.1502L27.6899 26.1338C27.8705 26.1334 28.0166 25.9866 28.0161 25.806L28.0044 21.0152C28.004 20.8345 27.8572 20.6885 27.6766 20.689Z" fill="white"/>
<path d="M24.8471 26.7148H20.8246C20.7119 26.7148 20.6207 26.8061 20.6207 26.9187C20.6207 27.0314 20.7119 27.1226 20.8246 27.1226H24.8471C24.9597 27.1226 25.051 27.0314 25.051 26.9187C25.051 26.8061 24.9597 26.7148 24.8471 26.7148Z" fill="white"/>
<path d="M27.7204 26.7148H25.7026C25.59 26.7148 25.4987 26.8061 25.4987 26.9187C25.4987 27.0314 25.59 27.1226 25.7026 27.1226H27.7204C27.833 27.1226 27.9243 27.0314 27.9243 26.9187C27.9243 26.8061 27.833 26.7148 27.7204 26.7148Z" fill="#D2B6FF"/>
<path d="M22.6719 27.5811H20.8246C20.7119 27.5811 20.6207 27.6723 20.6207 27.785C20.6207 27.8976 20.7119 27.9888 20.8246 27.9888H22.6719C22.7845 27.9888 22.8758 27.8976 22.8758 27.785C22.8758 27.6723 22.7845 27.5811 22.6719 27.5811Z" fill="#D2B6FF"/>
<path d="M27.8003 27.5811H23.5755C23.4629 27.5811 23.3716 27.6723 23.3716 27.785C23.3716 27.8976 23.4629 27.9888 23.5755 27.9888H27.8003C27.9129 27.9888 28.0042 27.8976 28.0042 27.785C28.0042 27.6723 27.9129 27.5811 27.8003 27.5811Z" fill="white"/>
<path d="M23.0414 23.1653L22.3652 24.0021C22.331 24.0442 22.3094 24.0951 22.303 24.149C22.2966 24.2029 22.3054 24.2574 22.3288 24.3065C22.3521 24.3555 22.3888 24.3968 22.4346 24.4258C22.4805 24.4548 22.5337 24.4702 22.5879 24.4702H23.9467C24.001 24.4704 24.0542 24.4551 24.1002 24.4261C24.1462 24.3972 24.183 24.3558 24.2064 24.3068C24.2298 24.2578 24.2388 24.2031 24.2324 24.1492C24.226 24.0952 24.2044 24.0442 24.1701 24.0021L23.4907 23.1653C23.4638 23.1316 23.4296 23.1044 23.3907 23.0858C23.3518 23.0671 23.3092 23.0574 23.2661 23.0574C23.2229 23.0574 23.1803 23.0671 23.1414 23.0858C23.1025 23.1044 23.0684 23.1316 23.0414 23.1653Z" fill="#E0D3F4"/>
<path d="M24.6635 22.5912L23.5552 23.9467C23.5169 23.9935 23.4926 24.0501 23.4851 24.11C23.4776 24.17 23.4871 24.2308 23.5127 24.2855C23.5383 24.3403 23.5788 24.3867 23.6296 24.4194C23.6804 24.4521 23.7394 24.4697 23.7998 24.4704H26.0174C26.0779 24.4697 26.1368 24.4521 26.1876 24.4194C26.2384 24.3867 26.279 24.3403 26.3045 24.2855C26.3301 24.2308 26.3397 24.17 26.3322 24.11C26.3247 24.0501 26.3003 23.9935 26.2621 23.9467L25.1537 22.5912C25.1236 22.5555 25.0861 22.5268 25.0438 22.5071C25.0014 22.4875 24.9553 22.4773 24.9086 22.4773C24.862 22.4773 24.8158 22.4875 24.7735 22.5071C24.7312 22.5268 24.6936 22.5555 24.6635 22.5912Z" fill="#C888ED"/>
<path d="M23.264 22.8415C23.3942 22.8415 23.4997 22.736 23.4997 22.6058C23.4997 22.4757 23.3942 22.3701 23.264 22.3701C23.1338 22.3701 23.0283 22.4757 23.0283 22.6058C23.0283 22.736 23.1338 22.8415 23.264 22.8415Z" fill="#BB86EF"/>
</g>
<defs>
<linearGradient id="paint0_linear_104_322" x1="0.0928273" y1="39.8549" x2="39.8548" y2="0.197709" gradientUnits="userSpaceOnUse">
<stop stop-color="#4811FF"/>
<stop offset="0.57" stop-color="#681AFD"/>
<stop offset="1" stop-color="#8221FB"/>
</linearGradient>
</defs>
</svg>
