<svg width="20" height="20" viewBox="0 0 20 20" fill="none" xmlns="http://www.w3.org/2000/svg">
<path d="M20 10C20 15.5228 15.5228 20 10 20C4.47715 20 0 15.5228 0 10C0 4.47715 4.47715 0 10 0C15.5228 0 20 4.47715 20 10Z" fill="white"/>
<path d="M4.6875 3.4375H9.6875V7.8125H4.6875V3.4375Z" fill="#FF5252"/>
<path d="M4.6875 8.90625H9.6875V13.2812H4.6875V8.90625Z" fill="#33E6A9"/>
<path d="M10.4688 3.4375H15.4688V7.8125H10.4688V3.4375Z" fill="#32E6FD"/>
<path d="M10.4688 8.90625H15.4688V13.2812H10.4688V8.90625Z" fill="#FFD042"/>
<path d="M5.36914 15.4365V15.1988H6.48908V15.4365H6.0716V16.5625H5.78662V15.4365H5.36914Z" fill="black"/>
<path d="M6.67352 16.5625V15.1988H6.96183V15.7615H7.5471V15.1988H7.83474V16.5625H7.5471V15.9992H6.96183V16.5625H6.67352Z" fill="black"/>
<path d="M8.07244 16.5625V15.1988H8.9913V15.4365H8.36075V15.7615H8.94403V15.9992H8.36075V16.3248H8.99396V16.5625H8.07244Z" fill="black"/>
<path d="M9.65447 16.5625V15.1988H10.1925C10.2959 15.1988 10.384 15.2186 10.4568 15.2581C10.5296 15.2971 10.5851 15.3515 10.6233 15.4212C10.6619 15.4905 10.6812 15.5704 10.6812 15.6609C10.6812 15.7515 10.6617 15.8314 10.6226 15.9006C10.5835 15.9699 10.5269 16.0238 10.4528 16.0624C10.3791 16.101 10.2899 16.1203 10.1851 16.1203H9.84224V15.8893H10.1385C10.194 15.8893 10.2397 15.8797 10.2757 15.8607C10.3121 15.8411 10.3392 15.8143 10.3569 15.7801C10.3751 15.7455 10.3842 15.7057 10.3842 15.6609C10.3842 15.6156 10.3751 15.5761 10.3569 15.5424C10.3392 15.5082 10.3121 15.4818 10.2757 15.4632C10.2393 15.4441 10.1931 15.4345 10.1372 15.4345H9.94278V16.5625H9.65447Z" fill="black"/>
<path d="M12.1216 15.8806C12.1216 16.0293 12.0934 16.1559 12.037 16.2602C11.9811 16.3645 11.9047 16.4442 11.808 16.4992C11.7116 16.5538 11.6033 16.5811 11.483 16.5811C11.3618 16.5811 11.2531 16.5536 11.1568 16.4985C11.0604 16.4435 10.9843 16.3638 10.9284 16.2595C10.8725 16.1552 10.8445 16.0289 10.8445 15.8806C10.8445 15.7319 10.8725 15.6054 10.9284 15.5011C10.9843 15.3968 11.0604 15.3173 11.1568 15.2627C11.2531 15.2077 11.3618 15.1802 11.483 15.1802C11.6033 15.1802 11.7116 15.2077 11.808 15.2627C11.9047 15.3173 11.9811 15.3968 12.037 15.5011C12.0934 15.6054 12.1216 15.7319 12.1216 15.8806ZM11.8293 15.8806C11.8293 15.7843 11.8148 15.7031 11.786 15.6369C11.7576 15.5708 11.7174 15.5206 11.6655 15.4865C11.6135 15.4523 11.5527 15.4352 11.483 15.4352C11.4133 15.4352 11.3525 15.4523 11.3006 15.4865C11.2487 15.5206 11.2083 15.5708 11.1794 15.6369C11.151 15.7031 11.1368 15.7843 11.1368 15.8806C11.1368 15.977 11.151 16.0582 11.1794 16.1243C11.2083 16.1905 11.2487 16.2406 11.3006 16.2748C11.3525 16.309 11.4133 16.3261 11.483 16.3261C11.5527 16.3261 11.6135 16.309 11.6655 16.2748C11.7174 16.2406 11.7576 16.1905 11.786 16.1243C11.8148 16.0582 11.8293 15.977 11.8293 15.8806Z" fill="black"/>
<path d="M13.0749 15.591C13.0696 15.5373 13.0467 15.4956 13.0063 15.4658C12.9659 15.4361 12.9111 15.4212 12.8418 15.4212C12.7948 15.4212 12.7551 15.4279 12.7227 15.4412C12.6903 15.4541 12.6654 15.472 12.6481 15.4951C12.6312 15.5182 12.6228 15.5444 12.6228 15.5737C12.6219 15.5981 12.627 15.6194 12.6381 15.6376C12.6496 15.6558 12.6654 15.6716 12.6854 15.6849C12.7053 15.6978 12.7284 15.7091 12.7546 15.7188C12.7808 15.7282 12.8088 15.7362 12.8385 15.7428L12.961 15.7721C13.0205 15.7854 13.0751 15.8032 13.1248 15.8254C13.1745 15.8476 13.2176 15.8749 13.254 15.9073C13.2904 15.9397 13.3186 15.9778 13.3386 16.0218C13.359 16.0657 13.3694 16.1161 13.3699 16.1729C13.3694 16.2564 13.3481 16.3287 13.3059 16.39C13.2642 16.4508 13.2038 16.4981 13.1248 16.5318C13.0463 16.5651 12.9515 16.5818 12.8405 16.5818C12.7304 16.5818 12.6345 16.5649 12.5529 16.5312C12.4716 16.4974 12.4082 16.4475 12.3624 16.3813C12.3172 16.3148 12.2934 16.2324 12.2912 16.1343H12.5702C12.5733 16.18 12.5864 16.2182 12.6095 16.2488C12.633 16.279 12.6643 16.3019 12.7033 16.3174C12.7429 16.3325 12.7875 16.3401 12.8372 16.3401C12.886 16.3401 12.9284 16.333 12.9644 16.3188C13.0008 16.3046 13.0289 16.2848 13.0489 16.2595C13.0689 16.2342 13.0789 16.2051 13.0789 16.1723C13.0789 16.1416 13.0698 16.1159 13.0516 16.095C13.0338 16.0742 13.0076 16.0564 12.973 16.0418C12.9388 16.0271 12.8969 16.0138 12.8472 16.0018L12.6987 15.9645C12.5837 15.9366 12.4929 15.8928 12.4264 15.8334C12.3598 15.7739 12.3267 15.6938 12.3271 15.593C12.3267 15.5104 12.3487 15.4383 12.3931 15.3766C12.4379 15.3149 12.4994 15.2667 12.5775 15.2321C12.6556 15.1975 12.7444 15.1802 12.8438 15.1802C12.945 15.1802 13.0334 15.1975 13.1088 15.2321C13.1847 15.2667 13.2438 15.3149 13.286 15.3766C13.3281 15.4383 13.3499 15.5098 13.3512 15.591H13.0749Z" fill="black"/>
<path d="M13.5118 15.4365V15.1988H14.6318V15.4365H14.2143V16.5625H13.9293V15.4365H13.5118Z" fill="black"/>
<path d="M8.7496 17.9834C8.74028 17.951 8.72718 17.9223 8.71032 17.8975C8.69345 17.8722 8.67281 17.8509 8.64839 17.8335C8.62442 17.8158 8.5969 17.8022 8.56583 17.7929C8.5352 17.7836 8.50124 17.7789 8.46396 17.7789C8.39427 17.7789 8.33301 17.7963 8.28018 17.8309C8.22781 17.8655 8.18697 17.9159 8.15767 17.982C8.12837 18.0477 8.11373 18.1281 8.11373 18.2231C8.11373 18.318 8.12815 18.3988 8.157 18.4654C8.18586 18.532 8.2267 18.5828 8.27952 18.6179C8.33234 18.6525 8.39471 18.6698 8.46662 18.6698C8.53187 18.6698 8.58758 18.6583 8.63374 18.6352C8.68035 18.6117 8.71586 18.5786 8.74028 18.536C8.76514 18.4934 8.77757 18.443 8.77757 18.3849L8.83616 18.3935H8.4846V18.1764H9.05522V18.3482C9.05522 18.4681 9.02992 18.5711 8.97931 18.6572C8.92871 18.7429 8.85902 18.809 8.77024 18.8556C8.68146 18.9018 8.57981 18.9248 8.46529 18.9248C8.33745 18.9248 8.22514 18.8967 8.12837 18.8403C8.03161 18.7835 7.95614 18.7029 7.90199 18.5986C7.84828 18.4938 7.82142 18.3695 7.82142 18.2257C7.82142 18.1152 7.8374 18.0166 7.86936 17.9301C7.90177 17.8431 7.94704 17.7694 8.00519 17.709C8.06334 17.6487 8.13104 17.6027 8.20827 17.5712C8.28551 17.5397 8.36919 17.5239 8.4593 17.5239C8.53653 17.5239 8.60844 17.5352 8.67503 17.5579C8.74161 17.5801 8.80065 17.6116 8.85214 17.6524C8.90408 17.6933 8.94647 17.7419 8.97931 17.7983C9.01216 17.8542 9.03325 17.9159 9.04257 17.9834H8.7496Z" fill="black"/>
<path d="M9.27178 18.9062V17.5426H9.80978C9.91276 17.5426 10.0007 17.561 10.0735 17.5978C10.1467 17.6342 10.2024 17.6859 10.2406 17.753C10.2792 17.8196 10.2985 17.8979 10.2985 17.988C10.2985 18.0786 10.279 18.1565 10.2399 18.2217C10.2008 18.2865 10.1443 18.3362 10.0701 18.3709C9.99644 18.4055 9.90722 18.4228 9.80246 18.4228H9.44224V18.1911H9.75585C9.81089 18.1911 9.85661 18.1835 9.89301 18.1685C9.92941 18.1534 9.95649 18.1307 9.97424 18.1005C9.99244 18.0704 10.0015 18.0328 10.0015 17.988C10.0015 17.9427 9.99244 17.9046 9.97424 17.8735C9.95649 17.8424 9.92919 17.8189 9.89235 17.8029C9.85595 17.7865 9.81 17.7783 9.75452 17.7783H9.56009V18.9062H9.27178ZM10.0082 18.2856L10.3471 18.9062H10.0288L9.69725 18.2856H10.0082Z" fill="black"/>
<path d="M10.7906 17.5426V18.9062H10.5023V17.5426H10.7906Z" fill="black"/>
<path d="M11.5112 18.9062H11.0278V17.5426H11.5152C11.6523 17.5426 11.7704 17.5699 11.8694 17.6245C11.9684 17.6786 12.0445 17.7565 12.0978 17.8582C12.1515 17.9598 12.1783 18.0815 12.1783 18.2231C12.1783 18.3651 12.1515 18.4872 12.0978 18.5893C12.0445 18.6914 11.9679 18.7697 11.8681 18.8243C11.7686 18.8789 11.6497 18.9062 11.5112 18.9062ZM11.3161 18.6592H11.4992C11.5844 18.6592 11.6561 18.6441 11.7142 18.6139C11.7728 18.5833 11.8168 18.536 11.8461 18.4721C11.8758 18.4077 11.8907 18.3247 11.8907 18.2231C11.8907 18.1223 11.8758 18.04 11.8461 17.976C11.8168 17.9121 11.7731 17.8651 11.7149 17.8349C11.6568 17.8047 11.5851 17.7896 11.4998 17.7896H11.3161V18.6592Z" fill="black"/>
</svg>
